<svg width="283" height="219" fill="none" xmlns="http://www.w3.org/2000/svg"><mask id="path-1-outside-1_63_557" maskUnits="userSpaceOnUse" x="16.729" y=".311" width="256" height="194" fill="#000"><path fill="#fff" d="M16.729.311h256v194h-256z"/><path d="M134.244 194.018c.165-5.237.247-10.447.275-15.685 0-5.238 0-10.448-.11-15.685-.165-10.448-.549-20.923-1.207-31.344l-.11-1.947-.137-1.947-.274-3.921-.33-3.921-.164-1.947-.192-1.947a249.102 249.102 0 00-1.948-15.576c-.411-2.578-.96-5.128-1.536-7.678a117.956 117.956 0 00-2.03-7.569c-.741-2.495-1.591-4.963-2.496-7.431-.22-.603-.467-1.207-.713-1.837-.247-.604-.467-1.234-.741-1.81-.521-1.207-1.015-2.413-1.564-3.592-4.307-9.516-9.958-18.455-17.008-26.188-3.538-3.84-7.434-7.377-11.658-10.42-4.252-3.045-8.806-5.677-13.606-7.706-4.828-2.002-9.876-3.483-15.033-4.278-2.579-.412-5.185-.631-7.79-.74l-.494-.028h-3.429c-.659.027-1.317.082-1.948.11l-.988.054c-.329.028-.658.028-.987.083-5.185.493-10.342 1.59-15.252 3.373-4.91 1.782-9.574 4.195-13.799 7.267l.055-.165c4.554 11.49 12.592 21.554 22.714 28.656a70.774 70.774 0 007.955 4.744 61.183 61.183 0 008.586 3.483 61.467 61.467 0 0018.243 2.934c3.1.027 6.172-.192 9.244-.658l1.152-.165c.384-.082.768-.165 1.125-.22l2.277-.465c1.481-.412 2.99-.74 4.471-1.262l1.097-.356.55-.192.548-.22L99.159 67c.713-.302 1.426-.631 2.112-.933.357-.164.713-.301 1.043-.466l1.042-.52 1.042-.522.522-.274c.164-.082.329-.192.493-.274l2.03-1.152c.659-.384 1.317-.823 1.975-1.207.33-.22.659-.411.988-.63l.96-.658.96-.659.467-.329.466-.329 1.865-1.37c.604-.467 1.207-.96 1.838-1.427.604-.466 1.207-.96 1.811-1.453 1.207-.987 2.359-2.002 3.511-3.017 1.152-1.042 2.304-2.084 3.402-3.153 4.498-4.25 8.805-8.72 13.139-13.135 4.362-4.415 8.779-8.775 13.469-12.806a105.76 105.76 0 017.325-5.759 80.825 80.825 0 017.873-4.963 78.599 78.599 0 018.394-4.031 81.375 81.375 0 018.778-3.127 86.707 86.707 0 019.053-2.138 63.581 63.581 0 012.304-.384l2.304-.33 2.304-.246a61.95 61.95 0 012.332-.192c12.399-.823 24.963.822 36.649 5.018a91.296 91.296 0 0131.547 19.305l.082.082-.027.083c-5.02 12.312-12.948 23.418-22.796 32.33-9.848 8.94-21.644 15.686-34.29 19.744l-1.18.384-1.207.356c-.795.22-1.591.467-2.386.686-1.619.384-3.21.823-4.856 1.124-1.618.357-3.264.604-4.91.905-.823.137-1.646.22-2.469.33l-1.234.164-1.235.11c-6.611.658-13.304.63-19.888-.138-13.222-1.48-26.06-5.923-37.389-12.888l-.11-.055.082-.082c5.596-4.799 10.699-10.119 15.883-15.356 5.185-5.21 10.479-10.393 16.459-14.726 5.953-4.36 12.646-7.65 19.669-9.9 3.511-1.096 7.105-1.974 10.753-2.522 3.649-.549 7.325-.85 11-.85-3.675 0-7.379.301-11 .877a72.132 72.132 0 00-10.753 2.55c-7.023 2.25-13.689 5.567-19.641 9.927-5.98 4.333-11.247 9.516-16.432 14.753-5.157 5.238-10.259 10.585-15.856 15.411v-.137c11.33 6.91 24.14 11.353 37.335 12.834 6.584.768 13.25.768 19.861.11l1.234-.11 1.235-.165 2.469-.329c1.646-.274 3.264-.52 4.882-.905 1.619-.301 3.237-.74 4.829-1.124.795-.22 1.591-.439 2.386-.685l1.207-.357 1.18-.384c12.618-4.058 24.387-10.804 34.18-19.716 9.82-8.885 17.693-19.964 22.713-32.221l.028.164C261.94 17.667 251.159 11.06 239.5 6.891c-11.658-4.169-24.167-5.814-36.511-4.964-.768.055-1.537.11-2.305.192l-2.304.247-2.304.329c-.768.11-1.536.274-2.277.384a84.566 84.566 0 00-9.025 2.139 82.592 82.592 0 00-8.724 3.126c-2.852 1.206-5.65 2.523-8.339 4.031-2.688 1.508-5.322 3.153-7.818 4.963-2.496 1.81-4.938 3.702-7.297 5.732-4.691 4.03-9.107 8.39-13.441 12.806-4.362 4.415-8.641 8.884-13.168 13.135-1.124 1.07-2.277 2.111-3.429 3.153-1.179 1.015-2.331 2.057-3.538 3.044-.604.494-1.18.987-1.811 1.453-.603.467-1.207.96-1.838 1.426l-1.865 1.372-.467.356-.493.33-.96.657-.961.658c-.329.22-.658.412-.987.631l-1.975 1.234-2.03 1.152c-.165.082-.329.192-.521.274l-.522.274-1.042.521-1.042.521a18.37 18.37 0 01-1.07.466c-.713.302-1.427.631-2.14.933l-2.167.823-.549.219-.548.192-1.098.356c-1.48.521-2.99.85-4.498 1.262-.769.164-1.537.301-2.277.466-.384.082-.768.164-1.152.22l-1.153.164a58.484 58.484 0 01-9.299.658 61.891 61.891 0 01-18.325-2.962 63.697 63.697 0 01-8.613-3.51 65.625 65.625 0 01-8.01-4.771c-10.177-7.13-18.242-17.249-22.823-28.82l-.055-.11.082-.055c4.252-3.072 8.943-5.512 13.88-7.294a61.168 61.168 0 0115.307-3.373c.33-.055.659-.055.988-.083l.988-.054c.658-.028 1.316-.083 1.975-.11h3.456l.494.027c2.606.11 5.24.33 7.818.74a65.461 65.461 0 0115.087 4.306c4.828 2.057 9.41 4.69 13.662 7.733 4.252 3.071 8.119 6.636 11.686 10.475 7.077 7.733 12.728 16.7 17.035 26.243.548 1.18 1.042 2.413 1.563 3.592.275.604.494 1.207.741 1.81s.494 1.207.713 1.837c.905 2.468 1.756 4.936 2.497 7.432.768 2.495 1.426 5.045 2.029 7.596.577 2.55 1.098 5.128 1.509 7.705.796 5.183 1.454 10.366 1.92 15.576l.192 1.947.165 1.947.329 3.921.275 3.922.137 1.947.109 1.947c.631 10.447.988 20.895 1.153 31.37.082 5.238.082 10.476.082 15.686-.11 5.1-.192 10.338-.357 15.575z"/></mask><path d="M134.244 194.018c.165-5.237.247-10.447.275-15.685 0-5.238 0-10.448-.11-15.685-.165-10.448-.549-20.923-1.207-31.344l-.11-1.947-.137-1.947-.274-3.921-.33-3.921-.164-1.947-.192-1.947a249.102 249.102 0 00-1.948-15.576c-.411-2.578-.96-5.128-1.536-7.678a117.956 117.956 0 00-2.03-7.569c-.741-2.495-1.591-4.963-2.496-7.431-.22-.603-.467-1.207-.713-1.837-.247-.604-.467-1.234-.741-1.81-.521-1.207-1.015-2.413-1.564-3.592-4.307-9.516-9.958-18.455-17.008-26.188-3.538-3.84-7.434-7.377-11.658-10.42-4.252-3.045-8.806-5.677-13.606-7.706-4.828-2.002-9.876-3.483-15.033-4.278-2.579-.412-5.185-.631-7.79-.74l-.494-.028h-3.429c-.659.027-1.317.082-1.948.11l-.988.054c-.329.028-.658.028-.987.083-5.185.493-10.342 1.59-15.252 3.373-4.91 1.782-9.574 4.195-13.799 7.267l.055-.165c4.554 11.49 12.592 21.554 22.714 28.656a70.774 70.774 0 007.955 4.744 61.183 61.183 0 008.586 3.483 61.467 61.467 0 0018.243 2.934c3.1.027 6.172-.192 9.244-.658l1.152-.165c.384-.082.768-.165 1.125-.22l2.277-.465c1.481-.412 2.99-.74 4.471-1.262l1.097-.356.55-.192.548-.22L99.159 67c.713-.302 1.426-.631 2.112-.933.357-.164.713-.301 1.043-.466l1.042-.52 1.042-.522.522-.274c.164-.082.329-.192.493-.274l2.03-1.152c.659-.384 1.317-.823 1.975-1.207.33-.22.659-.411.988-.63l.96-.658.96-.659.467-.329.466-.329 1.865-1.37c.604-.467 1.207-.96 1.838-1.427.604-.466 1.207-.96 1.811-1.453 1.207-.987 2.359-2.002 3.511-3.017 1.152-1.042 2.304-2.084 3.402-3.153 4.498-4.25 8.805-8.72 13.139-13.135 4.362-4.415 8.779-8.775 13.469-12.806a105.76 105.76 0 017.325-5.759 80.825 80.825 0 017.873-4.963 78.599 78.599 0 018.394-4.031 81.375 81.375 0 018.778-3.127 86.707 86.707 0 019.053-2.138 63.581 63.581 0 012.304-.384l2.304-.33 2.304-.246a61.95 61.95 0 012.332-.192c12.399-.823 24.963.822 36.649 5.018a91.296 91.296 0 0131.547 19.305l.082.082-.027.083c-5.02 12.312-12.948 23.418-22.796 32.33-9.848 8.94-21.644 15.686-34.29 19.744l-1.18.384-1.207.356c-.795.22-1.591.467-2.386.686-1.619.384-3.21.823-4.856 1.124-1.618.357-3.264.604-4.91.905-.823.137-1.646.22-2.469.33l-1.234.164-1.235.11c-6.611.658-13.304.63-19.888-.138-13.222-1.48-26.06-5.923-37.389-12.888l-.11-.055.082-.082c5.596-4.799 10.699-10.119 15.883-15.356 5.185-5.21 10.479-10.393 16.459-14.726 5.953-4.36 12.646-7.65 19.669-9.9 3.511-1.096 7.105-1.974 10.753-2.522 3.649-.549 7.325-.85 11-.85-3.675 0-7.379.301-11 .877a72.132 72.132 0 00-10.753 2.55c-7.023 2.25-13.689 5.567-19.641 9.927-5.98 4.333-11.247 9.516-16.432 14.753-5.157 5.238-10.259 10.585-15.856 15.411v-.137c11.33 6.91 24.14 11.353 37.335 12.834 6.584.768 13.25.768 19.861.11l1.234-.11 1.235-.165 2.469-.329c1.646-.274 3.264-.52 4.882-.905 1.619-.301 3.237-.74 4.829-1.124.795-.22 1.591-.439 2.386-.685l1.207-.357 1.18-.384c12.618-4.058 24.387-10.804 34.18-19.716 9.82-8.885 17.693-19.964 22.713-32.221l.028.164C261.94 17.667 251.159 11.06 239.5 6.891c-11.658-4.169-24.167-5.814-36.511-4.964-.768.055-1.537.11-2.305.192l-2.304.247-2.304.329c-.768.11-1.536.274-2.277.384a84.566 84.566 0 00-9.025 2.139 82.592 82.592 0 00-8.724 3.126c-2.852 1.206-5.65 2.523-8.339 4.031-2.688 1.508-5.322 3.153-7.818 4.963-2.496 1.81-4.938 3.702-7.297 5.732-4.691 4.03-9.107 8.39-13.441 12.806-4.362 4.415-8.641 8.884-13.168 13.135-1.124 1.07-2.277 2.111-3.429 3.153-1.179 1.015-2.331 2.057-3.538 3.044-.604.494-1.18.987-1.811 1.453-.603.467-1.207.96-1.838 1.426l-1.865 1.372-.467.356-.493.33-.96.657-.961.658c-.329.22-.658.412-.987.631l-1.975 1.234-2.03 1.152c-.165.082-.329.192-.521.274l-.522.274-1.042.521-1.042.521a18.37 18.37 0 01-1.07.466c-.713.302-1.427.631-2.14.933l-2.167.823-.549.219-.548.192-1.098.356c-1.48.521-2.99.85-4.498 1.262-.769.164-1.537.301-2.277.466-.384.082-.768.164-1.152.22l-1.153.164a58.484 58.484 0 01-9.299.658 61.891 61.891 0 01-18.325-2.962 63.697 63.697 0 01-8.613-3.51 65.625 65.625 0 01-8.01-4.771c-10.177-7.13-18.242-17.249-22.823-28.82l-.055-.11.082-.055c4.252-3.072 8.943-5.512 13.88-7.294a61.168 61.168 0 0115.307-3.373c.33-.055.659-.055.988-.083l.988-.054c.658-.028 1.316-.083 1.975-.11h3.456l.494.027c2.606.11 5.24.33 7.818.74a65.461 65.461 0 0115.087 4.306c4.828 2.057 9.41 4.69 13.662 7.733 4.252 3.071 8.119 6.636 11.686 10.475 7.077 7.733 12.728 16.7 17.035 26.243.548 1.18 1.042 2.413 1.563 3.592.275.604.494 1.207.741 1.81s.494 1.207.713 1.837c.905 2.468 1.756 4.936 2.497 7.432.768 2.495 1.426 5.045 2.029 7.596.577 2.55 1.098 5.128 1.509 7.705.796 5.183 1.454 10.366 1.92 15.576l.192 1.947.165 1.947.329 3.921.275 3.922.137 1.947.109 1.947c.631 10.447.988 20.895 1.153 31.37.082 5.238.082 10.476.082 15.686-.11 5.1-.192 10.338-.357 15.575z" fill="#DBDBDB"/><path d="M134.244 194.018c.165-5.237.247-10.447.275-15.685 0-5.238 0-10.448-.11-15.685-.165-10.448-.549-20.923-1.207-31.344l-.11-1.947-.137-1.947-.274-3.921-.33-3.921-.164-1.947-.192-1.947a249.102 249.102 0 00-1.948-15.576c-.411-2.578-.96-5.128-1.536-7.678a117.956 117.956 0 00-2.03-7.569c-.741-2.495-1.591-4.963-2.496-7.431-.22-.603-.467-1.207-.713-1.837-.247-.604-.467-1.234-.741-1.81-.521-1.207-1.015-2.413-1.564-3.592-4.307-9.516-9.958-18.455-17.008-26.188-3.538-3.84-7.434-7.377-11.658-10.42-4.252-3.045-8.806-5.677-13.606-7.706-4.828-2.002-9.876-3.483-15.033-4.278-2.579-.412-5.185-.631-7.79-.74l-.494-.028h-3.429c-.659.027-1.317.082-1.948.11l-.988.054c-.329.028-.658.028-.987.083-5.185.493-10.342 1.59-15.252 3.373-4.91 1.782-9.574 4.195-13.799 7.267l.055-.165c4.554 11.49 12.592 21.554 22.714 28.656a70.774 70.774 0 007.955 4.744 61.183 61.183 0 008.586 3.483 61.467 61.467 0 0018.243 2.934c3.1.027 6.172-.192 9.244-.658l1.152-.165c.384-.082.768-.165 1.125-.22l2.277-.465c1.481-.412 2.99-.74 4.471-1.262l1.097-.356.55-.192.548-.22L99.159 67c.713-.302 1.426-.631 2.112-.933.357-.164.713-.301 1.043-.466l1.042-.52 1.042-.522.522-.274c.164-.082.329-.192.493-.274l2.03-1.152c.659-.384 1.317-.823 1.975-1.207.33-.22.659-.411.988-.63l.96-.658.96-.659.467-.329.466-.329 1.865-1.37c.604-.467 1.207-.96 1.838-1.427.604-.466 1.207-.96 1.811-1.453 1.207-.987 2.359-2.002 3.511-3.017 1.152-1.042 2.304-2.084 3.402-3.153 4.498-4.25 8.805-8.72 13.139-13.135 4.362-4.415 8.779-8.775 13.469-12.806a105.76 105.76 0 017.325-5.759 80.825 80.825 0 017.873-4.963 78.599 78.599 0 018.394-4.031 81.375 81.375 0 018.778-3.127 86.707 86.707 0 019.053-2.138 63.581 63.581 0 012.304-.384l2.304-.33 2.304-.246a61.95 61.95 0 012.332-.192c12.399-.823 24.963.822 36.649 5.018a91.296 91.296 0 0131.547 19.305l.082.082-.027.083c-5.02 12.312-12.948 23.418-22.796 32.33-9.848 8.94-21.644 15.686-34.29 19.744l-1.18.384-1.207.356c-.795.22-1.591.467-2.386.686-1.619.384-3.21.823-4.856 1.124-1.618.357-3.264.604-4.91.905-.823.137-1.646.22-2.469.33l-1.234.164-1.235.11c-6.611.658-13.304.63-19.888-.138-13.222-1.48-26.06-5.923-37.389-12.888l-.11-.055.082-.082c5.596-4.799 10.699-10.119 15.883-15.356 5.185-5.21 10.479-10.393 16.459-14.726 5.953-4.36 12.646-7.65 19.669-9.9 3.511-1.096 7.105-1.974 10.753-2.522 3.649-.549 7.325-.85 11-.85-3.675 0-7.379.301-11 .877a72.132 72.132 0 00-10.753 2.55c-7.023 2.25-13.689 5.567-19.641 9.927-5.98 4.333-11.247 9.516-16.432 14.753-5.157 5.238-10.259 10.585-15.856 15.411v-.137c11.33 6.91 24.14 11.353 37.335 12.834 6.584.768 13.25.768 19.861.11l1.234-.11 1.235-.165 2.469-.329c1.646-.274 3.264-.52 4.882-.905 1.619-.301 3.237-.74 4.829-1.124.795-.22 1.591-.439 2.386-.685l1.207-.357 1.18-.384c12.618-4.058 24.387-10.804 34.18-19.716 9.82-8.885 17.693-19.964 22.713-32.221l.028.164C261.94 17.667 251.159 11.06 239.5 6.891c-11.658-4.169-24.167-5.814-36.511-4.964-.768.055-1.537.11-2.305.192l-2.304.247-2.304.329c-.768.11-1.536.274-2.277.384a84.566 84.566 0 00-9.025 2.139 82.592 82.592 0 00-8.724 3.126c-2.852 1.206-5.65 2.523-8.339 4.031-2.688 1.508-5.322 3.153-7.818 4.963-2.496 1.81-4.938 3.702-7.297 5.732-4.691 4.03-9.107 8.39-13.441 12.806-4.362 4.415-8.641 8.884-13.168 13.135-1.124 1.07-2.277 2.111-3.429 3.153-1.179 1.015-2.331 2.057-3.538 3.044-.604.494-1.18.987-1.811 1.453-.603.467-1.207.96-1.838 1.426l-1.865 1.372-.467.356-.493.33-.96.657-.961.658c-.329.22-.658.412-.987.631l-1.975 1.234-2.03 1.152c-.165.082-.329.192-.521.274l-.522.274-1.042.521-1.042.521a18.37 18.37 0 01-1.07.466c-.713.302-1.427.631-2.14.933l-2.167.823-.549.219-.548.192-1.098.356c-1.48.521-2.99.85-4.498 1.262-.769.164-1.537.301-2.277.466-.384.082-.768.164-1.152.22l-1.153.164a58.484 58.484 0 01-9.299.658 61.891 61.891 0 01-18.325-2.962 63.697 63.697 0 01-8.613-3.51 65.625 65.625 0 01-8.01-4.771c-10.177-7.13-18.242-17.249-22.823-28.82l-.055-.11.082-.055c4.252-3.072 8.943-5.512 13.88-7.294a61.168 61.168 0 0115.307-3.373c.33-.055.659-.055.988-.083l.988-.054c.658-.028 1.316-.083 1.975-.11h3.456l.494.027c2.606.11 5.24.33 7.818.74a65.461 65.461 0 0115.087 4.306c4.828 2.057 9.41 4.69 13.662 7.733 4.252 3.071 8.119 6.636 11.686 10.475 7.077 7.733 12.728 16.7 17.035 26.243.548 1.18 1.042 2.413 1.563 3.592.275.604.494 1.207.741 1.81s.494 1.207.713 1.837c.905 2.468 1.756 4.936 2.497 7.432.768 2.495 1.426 5.045 2.029 7.596.577 2.55 1.098 5.128 1.509 7.705.796 5.183 1.454 10.366 1.92 15.576l.192 1.947.165 1.947.329 3.921.275 3.922.137 1.947.109 1.947c.631 10.447.988 20.895 1.153 31.37.082 5.238.082 10.476.082 15.686-.11 5.1-.192 10.338-.357 15.575z" stroke="#00FEB2" stroke-width="1.975" mask="url(#path-1-outside-1_63_557)"/><path d="M44.13 32.667c-23.042 3.84-42.519 2.03-43.534-4.03-1.015-6.06 16.843-14.095 39.886-17.934 23.043-3.84 42.52-2.03 43.534 4.03.988 6.06-16.843 14.095-39.886 17.934z" fill="url(#paint0_radial_63_557)"/><path d="M259.059 63.545c-16.98 16.535-34.207 26.407-38.487 22.02-4.279-4.388 6.008-21.362 22.961-37.898 16.98-16.535 34.207-26.407 38.487-22.02 4.307 4.388-5.98 21.362-22.961 37.898z" fill="url(#paint1_radial_63_557)"/><path opacity=".6" d="M14.723 195.253c0 12.97 52.972 23.473 118.342 23.473 65.342 0 118.341-10.503 118.341-23.473 0-12.971-52.971-23.474-118.341-23.474-65.343 0-118.341 10.53-118.341 23.474z" fill="url(#paint2_radial_63_557)" fill-opacity=".5"/><defs><radialGradient id="paint0_radial_63_557" cx="0" cy="0" r="1" gradientUnits="userSpaceOnUse" gradientTransform="matrix(1.81681 10.98041 -41.7038 6.90028 42.296 21.695)"><stop offset=".071" stop-color="#88FFDB"/><stop offset="1" stop-opacity="0"/></radialGradient><radialGradient id="paint1_radial_63_557" cx="0" cy="0" r="1" gradientUnits="userSpaceOnUse" gradientTransform="matrix(7.74361 7.9582 -30.74695 29.91786 251.306 55.61)"><stop stop-color="#fff"/><stop offset=".328" stop-color="#00FEB2"/><stop offset="1" stop-color="#DFF7FA" stop-opacity="0"/></radialGradient><radialGradient id="paint2_radial_63_557" cx="0" cy="0" r="1" gradientUnits="userSpaceOnUse" gradientTransform="matrix(-118.333 .00207 -.00041 -23.4752 133.072 195.263)"><stop stop-color="#fff"/><stop offset="1" stop-opacity="0"/></radialGradient></defs></svg>