<svg width="283" height="219" viewBox="0 0 283 219" fill="none" xmlns="http://www.w3.org/2000/svg">
<mask id="path-1-outside-1_63_557" maskUnits="userSpaceOnUse" x="16.7286" y="0.310547" width="256" height="194" fill="black">
<rect fill="white" x="16.7286" y="0.310547" width="256" height="194"/>
<path d="M134.244 194.018C134.409 188.781 134.491 183.571 134.519 178.333C134.519 173.095 134.519 167.885 134.409 162.648C134.244 152.2 133.86 141.725 133.202 131.304L133.092 129.357L132.955 127.41L132.681 123.489L132.351 119.568L132.187 117.621L131.995 115.674C131.501 110.464 130.87 105.281 130.047 100.098C129.636 97.5203 129.087 94.9701 128.511 92.4198C127.908 89.8696 127.249 87.3468 126.481 84.8514C125.74 82.356 124.89 79.888 123.985 77.42C123.765 76.8167 123.518 76.2134 123.272 75.5827C123.025 74.9794 122.805 74.3487 122.531 73.7729C122.01 72.5663 121.516 71.3597 120.967 70.1806C116.66 60.6651 111.009 51.7256 103.959 43.9925C100.421 40.1535 96.5255 36.616 92.3009 33.5722C88.049 30.5283 83.4953 27.8958 78.6947 25.8666C73.8667 23.8648 68.8192 22.384 63.662 21.5888C61.0834 21.1774 58.4774 20.958 55.8714 20.8484L55.3776 20.8209H54.8838H53.8963H51.9486C51.2903 20.8484 50.6319 20.9032 50.001 20.9306L49.0134 20.9855C48.6842 21.0129 48.3551 21.0129 48.0259 21.0677C42.8412 21.5613 37.6841 22.6582 32.7737 24.4406C27.8634 26.2231 23.2 28.6362 18.9755 31.7075L19.0304 31.5429C23.5841 43.0328 31.6216 53.0967 41.744 60.199C44.2951 61.954 46.956 63.5444 49.6992 64.943C52.4698 66.3141 55.3502 67.4932 58.2854 68.4256C64.1833 70.3177 70.328 71.3049 76.5276 71.3597C79.6274 71.3871 82.6998 71.1678 85.7721 70.7016L86.9243 70.5371C87.3083 70.4548 87.6924 70.3725 88.049 70.3177L90.3258 69.8515C91.8072 69.4402 93.3159 69.1111 94.7972 68.5901L95.8945 68.2336L96.4431 68.0417L96.9918 67.8223L99.1589 66.9996C99.8721 66.698 100.585 66.3689 101.271 66.0673C101.628 65.9027 101.984 65.7656 102.314 65.6011L103.356 65.0801L104.398 64.5591L104.92 64.2848C105.084 64.2026 105.249 64.0929 105.413 64.0106L107.443 62.8589C108.102 62.475 108.76 62.0362 109.418 61.6523C109.748 61.4329 110.077 61.241 110.406 61.0216L111.366 60.3635L112.326 59.7054L112.793 59.3763L113.259 59.0472L115.124 57.6761C115.728 57.21 116.331 56.7164 116.962 56.2502C117.566 55.784 118.169 55.2904 118.773 54.7968C119.98 53.8096 121.132 52.795 122.284 51.7804C123.436 50.7384 124.588 49.6963 125.686 48.6269C130.184 44.3764 134.491 39.9067 138.825 35.4917C143.187 31.0768 147.604 26.7167 152.294 22.6856C154.654 20.6564 157.095 18.7369 159.619 16.927C162.143 15.1172 164.776 13.4718 167.492 11.9636C170.207 10.4554 173.006 9.11173 175.886 7.93258C178.739 6.72602 181.674 5.68398 184.664 4.80648C187.654 3.92897 190.672 3.216 193.717 2.66756C194.485 2.53045 195.253 2.39333 196.021 2.28365L198.325 1.95458L200.629 1.70779C201.398 1.62552 202.166 1.57068 202.961 1.51583C215.36 0.693172 227.924 2.33849 239.61 6.53406C251.296 10.7296 262.104 17.3383 271.157 25.8392L271.239 25.9214L271.212 26.0037C266.192 38.3162 258.264 49.4221 248.416 58.3343C238.568 67.2738 226.772 74.0197 214.126 78.0781L212.946 78.462L211.739 78.8185C210.944 79.0379 210.148 79.2847 209.353 79.5041C207.734 79.888 206.143 80.3267 204.497 80.6284C202.879 80.9849 201.233 81.2317 199.587 81.5333C198.764 81.6704 197.941 81.7527 197.118 81.8624L195.884 82.0269L194.649 82.1366C188.038 82.7947 181.345 82.7673 174.761 81.9995C161.539 80.5187 148.701 76.0763 137.372 69.1111L137.262 69.0563L137.344 68.974C142.94 64.1752 148.043 58.8553 153.227 53.6177C158.412 48.4075 163.706 43.2247 169.686 38.892C175.639 34.5319 182.332 31.2413 189.355 28.9927C192.866 27.8958 196.46 27.0183 200.108 26.4699C203.757 25.9214 207.433 25.6198 211.108 25.6198C207.433 25.6198 203.729 25.9214 200.108 26.4973C196.46 27.0732 192.866 27.9232 189.355 29.0475C182.332 31.2961 175.666 34.6142 169.714 38.9743C163.734 43.307 158.467 48.4898 153.282 53.7274C148.125 58.965 143.023 64.3123 137.426 69.1385V69.0014C148.756 75.9118 161.566 80.3541 174.761 81.8349C181.345 82.6028 188.011 82.6028 194.622 81.9446L195.856 81.8349L197.091 81.6704C197.914 81.5607 198.737 81.451 199.56 81.3413C201.206 81.0671 202.824 80.8203 204.442 80.4364C206.061 80.1348 207.679 79.696 209.271 79.3121C210.066 79.0927 210.862 78.8734 211.657 78.6266L212.864 78.2701L214.044 77.8862C226.662 73.8277 238.431 67.0819 248.224 58.1697C258.044 49.285 265.917 38.2065 270.937 25.9489L270.965 26.1134C261.94 17.6674 251.159 11.0587 239.5 6.89055C227.842 2.7224 215.333 1.07708 202.989 1.92716C202.221 1.98201 201.452 2.03685 200.684 2.11912L198.38 2.36591L196.076 2.69498C195.308 2.80466 194.54 2.9692 193.799 3.07889C190.754 3.62733 187.736 4.3403 184.774 5.21781C181.811 6.09531 178.903 7.13735 176.05 8.34391C173.198 9.55048 170.4 10.8667 167.711 12.375C165.023 13.8832 162.389 15.5285 159.893 17.3383C157.397 19.1482 154.955 21.0403 152.596 23.0695C147.905 27.1006 143.489 31.4607 139.155 35.8756C134.793 40.2906 130.514 44.7604 125.987 49.0108C124.863 50.0802 123.71 51.1223 122.558 52.1643C121.379 53.1789 120.227 54.221 119.02 55.2081C118.416 55.7017 117.84 56.1953 117.209 56.6615C116.606 57.1277 116.002 57.6213 115.371 58.0875L113.506 59.4586L113.039 59.8151L112.546 60.1441L111.586 60.8022L110.625 61.4604C110.296 61.6798 109.967 61.8717 109.638 62.0911C108.98 62.5024 108.321 62.9137 107.663 63.3251L105.633 64.4768C105.468 64.5591 105.304 64.6688 105.112 64.751L104.59 65.0252L103.548 65.5463L102.506 66.0673C102.149 66.2318 101.792 66.3963 101.436 66.5334C100.723 66.8351 100.009 67.1642 99.2961 67.4658L97.1289 68.2885L96.5803 68.5078L96.0317 68.6998L94.9344 69.0563C93.4531 69.5773 91.9443 69.9064 90.4356 70.3177C89.6675 70.4822 88.8994 70.6193 88.1587 70.7839C87.7747 70.8661 87.3906 70.9484 87.0066 71.0032L85.8544 71.1678C82.7821 71.6339 79.6823 71.8533 76.555 71.8259C70.328 71.7711 64.1284 70.7564 58.2305 68.8643C55.2679 67.9045 52.3875 66.7254 49.6169 65.3543C46.8463 63.9558 44.158 62.3653 41.6068 60.5829C31.4296 53.4531 23.3646 43.3344 18.7835 31.7623L18.7286 31.6526L18.8109 31.5978C23.0629 28.5265 27.7537 26.086 32.6914 24.3035C37.6292 22.5211 42.7864 21.3968 47.9984 20.9306C48.3276 20.8758 48.6568 20.8758 48.986 20.8484L49.9735 20.7935C50.6319 20.7661 51.2903 20.7112 51.9486 20.6838H53.9237H54.9113H55.4051L55.8988 20.7112C58.5049 20.8209 61.1383 21.0403 63.7169 21.4516C68.9015 22.2743 73.9764 23.7277 78.8044 25.7569C83.6325 27.8136 88.2136 30.4461 92.4655 33.4899C96.7175 36.5612 100.585 40.126 104.152 43.9651C111.229 51.6981 116.88 60.6651 121.187 70.208C121.735 71.3871 122.229 72.6211 122.75 73.8003C123.025 74.4036 123.244 75.0069 123.491 75.6101C123.738 76.2134 123.985 76.8167 124.204 77.4474C125.109 79.9154 125.96 82.3834 126.701 84.8788C127.469 87.3742 128.127 89.9244 128.73 92.4747C129.307 95.0249 129.828 97.6026 130.239 100.18C131.035 105.363 131.693 110.546 132.159 115.756L132.351 117.703L132.516 119.65L132.845 123.571L133.12 127.493L133.257 129.44L133.366 131.387C133.997 141.834 134.354 152.282 134.519 162.757C134.601 167.995 134.601 173.233 134.601 178.443C134.491 183.543 134.409 188.781 134.244 194.018Z"/>
</mask>
<path d="M134.244 194.018C134.409 188.781 134.491 183.571 134.519 178.333C134.519 173.095 134.519 167.885 134.409 162.648C134.244 152.2 133.86 141.725 133.202 131.304L133.092 129.357L132.955 127.41L132.681 123.489L132.351 119.568L132.187 117.621L131.995 115.674C131.501 110.464 130.87 105.281 130.047 100.098C129.636 97.5203 129.087 94.9701 128.511 92.4198C127.908 89.8696 127.249 87.3468 126.481 84.8514C125.74 82.356 124.89 79.888 123.985 77.42C123.765 76.8167 123.518 76.2134 123.272 75.5827C123.025 74.9794 122.805 74.3487 122.531 73.7729C122.01 72.5663 121.516 71.3597 120.967 70.1806C116.66 60.6651 111.009 51.7256 103.959 43.9925C100.421 40.1535 96.5255 36.616 92.3009 33.5722C88.049 30.5283 83.4953 27.8958 78.6947 25.8666C73.8667 23.8648 68.8192 22.384 63.662 21.5888C61.0834 21.1774 58.4774 20.958 55.8714 20.8484L55.3776 20.8209H54.8838H53.8963H51.9486C51.2903 20.8484 50.6319 20.9032 50.001 20.9306L49.0134 20.9855C48.6842 21.0129 48.3551 21.0129 48.0259 21.0677C42.8412 21.5613 37.6841 22.6582 32.7737 24.4406C27.8634 26.2231 23.2 28.6362 18.9755 31.7075L19.0304 31.5429C23.5841 43.0328 31.6216 53.0967 41.744 60.199C44.2951 61.954 46.956 63.5444 49.6992 64.943C52.4698 66.3141 55.3502 67.4932 58.2854 68.4256C64.1833 70.3177 70.328 71.3049 76.5276 71.3597C79.6274 71.3871 82.6998 71.1678 85.7721 70.7016L86.9243 70.5371C87.3083 70.4548 87.6924 70.3725 88.049 70.3177L90.3258 69.8515C91.8072 69.4402 93.3159 69.1111 94.7972 68.5901L95.8945 68.2336L96.4431 68.0417L96.9918 67.8223L99.1589 66.9996C99.8721 66.698 100.585 66.3689 101.271 66.0673C101.628 65.9027 101.984 65.7656 102.314 65.6011L103.356 65.0801L104.398 64.5591L104.92 64.2848C105.084 64.2026 105.249 64.0929 105.413 64.0106L107.443 62.8589C108.102 62.475 108.76 62.0362 109.418 61.6523C109.748 61.4329 110.077 61.241 110.406 61.0216L111.366 60.3635L112.326 59.7054L112.793 59.3763L113.259 59.0472L115.124 57.6761C115.728 57.21 116.331 56.7164 116.962 56.2502C117.566 55.784 118.169 55.2904 118.773 54.7968C119.98 53.8096 121.132 52.795 122.284 51.7804C123.436 50.7384 124.588 49.6963 125.686 48.6269C130.184 44.3764 134.491 39.9067 138.825 35.4917C143.187 31.0768 147.604 26.7167 152.294 22.6856C154.654 20.6564 157.095 18.7369 159.619 16.927C162.143 15.1172 164.776 13.4718 167.492 11.9636C170.207 10.4554 173.006 9.11173 175.886 7.93258C178.739 6.72602 181.674 5.68398 184.664 4.80648C187.654 3.92897 190.672 3.216 193.717 2.66756C194.485 2.53045 195.253 2.39333 196.021 2.28365L198.325 1.95458L200.629 1.70779C201.398 1.62552 202.166 1.57068 202.961 1.51583C215.36 0.693172 227.924 2.33849 239.61 6.53406C251.296 10.7296 262.104 17.3383 271.157 25.8392L271.239 25.9214L271.212 26.0037C266.192 38.3162 258.264 49.4221 248.416 58.3343C238.568 67.2738 226.772 74.0197 214.126 78.0781L212.946 78.462L211.739 78.8185C210.944 79.0379 210.148 79.2847 209.353 79.5041C207.734 79.888 206.143 80.3267 204.497 80.6284C202.879 80.9849 201.233 81.2317 199.587 81.5333C198.764 81.6704 197.941 81.7527 197.118 81.8624L195.884 82.0269L194.649 82.1366C188.038 82.7947 181.345 82.7673 174.761 81.9995C161.539 80.5187 148.701 76.0763 137.372 69.1111L137.262 69.0563L137.344 68.974C142.94 64.1752 148.043 58.8553 153.227 53.6177C158.412 48.4075 163.706 43.2247 169.686 38.892C175.639 34.5319 182.332 31.2413 189.355 28.9927C192.866 27.8958 196.46 27.0183 200.108 26.4699C203.757 25.9214 207.433 25.6198 211.108 25.6198C207.433 25.6198 203.729 25.9214 200.108 26.4973C196.46 27.0732 192.866 27.9232 189.355 29.0475C182.332 31.2961 175.666 34.6142 169.714 38.9743C163.734 43.307 158.467 48.4898 153.282 53.7274C148.125 58.965 143.023 64.3123 137.426 69.1385V69.0014C148.756 75.9118 161.566 80.3541 174.761 81.8349C181.345 82.6028 188.011 82.6028 194.622 81.9446L195.856 81.8349L197.091 81.6704C197.914 81.5607 198.737 81.451 199.56 81.3413C201.206 81.0671 202.824 80.8203 204.442 80.4364C206.061 80.1348 207.679 79.696 209.271 79.3121C210.066 79.0927 210.862 78.8734 211.657 78.6266L212.864 78.2701L214.044 77.8862C226.662 73.8277 238.431 67.0819 248.224 58.1697C258.044 49.285 265.917 38.2065 270.937 25.9489L270.965 26.1134C261.94 17.6674 251.159 11.0587 239.5 6.89055C227.842 2.7224 215.333 1.07708 202.989 1.92716C202.221 1.98201 201.452 2.03685 200.684 2.11912L198.38 2.36591L196.076 2.69498C195.308 2.80466 194.54 2.9692 193.799 3.07889C190.754 3.62733 187.736 4.3403 184.774 5.21781C181.811 6.09531 178.903 7.13735 176.05 8.34391C173.198 9.55048 170.4 10.8667 167.711 12.375C165.023 13.8832 162.389 15.5285 159.893 17.3383C157.397 19.1482 154.955 21.0403 152.596 23.0695C147.905 27.1006 143.489 31.4607 139.155 35.8756C134.793 40.2906 130.514 44.7604 125.987 49.0108C124.863 50.0802 123.71 51.1223 122.558 52.1643C121.379 53.1789 120.227 54.221 119.02 55.2081C118.416 55.7017 117.84 56.1953 117.209 56.6615C116.606 57.1277 116.002 57.6213 115.371 58.0875L113.506 59.4586L113.039 59.8151L112.546 60.1441L111.586 60.8022L110.625 61.4604C110.296 61.6798 109.967 61.8717 109.638 62.0911C108.98 62.5024 108.321 62.9137 107.663 63.3251L105.633 64.4768C105.468 64.5591 105.304 64.6688 105.112 64.751L104.59 65.0252L103.548 65.5463L102.506 66.0673C102.149 66.2318 101.792 66.3963 101.436 66.5334C100.723 66.8351 100.009 67.1642 99.2961 67.4658L97.1289 68.2885L96.5803 68.5078L96.0317 68.6998L94.9344 69.0563C93.4531 69.5773 91.9443 69.9064 90.4356 70.3177C89.6675 70.4822 88.8994 70.6193 88.1587 70.7839C87.7747 70.8661 87.3906 70.9484 87.0066 71.0032L85.8544 71.1678C82.7821 71.6339 79.6823 71.8533 76.555 71.8259C70.328 71.7711 64.1284 70.7564 58.2305 68.8643C55.2679 67.9045 52.3875 66.7254 49.6169 65.3543C46.8463 63.9558 44.158 62.3653 41.6068 60.5829C31.4296 53.4531 23.3646 43.3344 18.7835 31.7623L18.7286 31.6526L18.8109 31.5978C23.0629 28.5265 27.7537 26.086 32.6914 24.3035C37.6292 22.5211 42.7864 21.3968 47.9984 20.9306C48.3276 20.8758 48.6568 20.8758 48.986 20.8484L49.9735 20.7935C50.6319 20.7661 51.2903 20.7112 51.9486 20.6838H53.9237H54.9113H55.4051L55.8988 20.7112C58.5049 20.8209 61.1383 21.0403 63.7169 21.4516C68.9015 22.2743 73.9764 23.7277 78.8044 25.7569C83.6325 27.8136 88.2136 30.4461 92.4655 33.4899C96.7175 36.5612 100.585 40.126 104.152 43.9651C111.229 51.6981 116.88 60.6651 121.187 70.208C121.735 71.3871 122.229 72.6211 122.75 73.8003C123.025 74.4036 123.244 75.0069 123.491 75.6101C123.738 76.2134 123.985 76.8167 124.204 77.4474C125.109 79.9154 125.96 82.3834 126.701 84.8788C127.469 87.3742 128.127 89.9244 128.73 92.4747C129.307 95.0249 129.828 97.6026 130.239 100.18C131.035 105.363 131.693 110.546 132.159 115.756L132.351 117.703L132.516 119.65L132.845 123.571L133.12 127.493L133.257 129.44L133.366 131.387C133.997 141.834 134.354 152.282 134.519 162.757C134.601 167.995 134.601 173.233 134.601 178.443C134.491 183.543 134.409 188.781 134.244 194.018Z" fill="#DBDBDB"/>
<path d="M134.244 194.018C134.409 188.781 134.491 183.571 134.519 178.333C134.519 173.095 134.519 167.885 134.409 162.648C134.244 152.2 133.86 141.725 133.202 131.304L133.092 129.357L132.955 127.41L132.681 123.489L132.351 119.568L132.187 117.621L131.995 115.674C131.501 110.464 130.87 105.281 130.047 100.098C129.636 97.5203 129.087 94.9701 128.511 92.4198C127.908 89.8696 127.249 87.3468 126.481 84.8514C125.74 82.356 124.89 79.888 123.985 77.42C123.765 76.8167 123.518 76.2134 123.272 75.5827C123.025 74.9794 122.805 74.3487 122.531 73.7729C122.01 72.5663 121.516 71.3597 120.967 70.1806C116.66 60.6651 111.009 51.7256 103.959 43.9925C100.421 40.1535 96.5255 36.616 92.3009 33.5722C88.049 30.5283 83.4953 27.8958 78.6947 25.8666C73.8667 23.8648 68.8192 22.384 63.662 21.5888C61.0834 21.1774 58.4774 20.958 55.8714 20.8484L55.3776 20.8209H54.8838H53.8963H51.9486C51.2903 20.8484 50.6319 20.9032 50.001 20.9306L49.0134 20.9855C48.6842 21.0129 48.3551 21.0129 48.0259 21.0677C42.8412 21.5613 37.6841 22.6582 32.7737 24.4406C27.8634 26.2231 23.2 28.6362 18.9755 31.7075L19.0304 31.5429C23.5841 43.0328 31.6216 53.0967 41.744 60.199C44.2951 61.954 46.956 63.5444 49.6992 64.943C52.4698 66.3141 55.3502 67.4932 58.2854 68.4256C64.1833 70.3177 70.328 71.3049 76.5276 71.3597C79.6274 71.3871 82.6998 71.1678 85.7721 70.7016L86.9243 70.5371C87.3083 70.4548 87.6924 70.3725 88.049 70.3177L90.3258 69.8515C91.8072 69.4402 93.3159 69.1111 94.7972 68.5901L95.8945 68.2336L96.4431 68.0417L96.9918 67.8223L99.1589 66.9996C99.8721 66.698 100.585 66.3689 101.271 66.0673C101.628 65.9027 101.984 65.7656 102.314 65.6011L103.356 65.0801L104.398 64.5591L104.92 64.2848C105.084 64.2026 105.249 64.0929 105.413 64.0106L107.443 62.8589C108.102 62.475 108.76 62.0362 109.418 61.6523C109.748 61.4329 110.077 61.241 110.406 61.0216L111.366 60.3635L112.326 59.7054L112.793 59.3763L113.259 59.0472L115.124 57.6761C115.728 57.21 116.331 56.7164 116.962 56.2502C117.566 55.784 118.169 55.2904 118.773 54.7968C119.98 53.8096 121.132 52.795 122.284 51.7804C123.436 50.7384 124.588 49.6963 125.686 48.6269C130.184 44.3764 134.491 39.9067 138.825 35.4917C143.187 31.0768 147.604 26.7167 152.294 22.6856C154.654 20.6564 157.095 18.7369 159.619 16.927C162.143 15.1172 164.776 13.4718 167.492 11.9636C170.207 10.4554 173.006 9.11173 175.886 7.93258C178.739 6.72602 181.674 5.68398 184.664 4.80648C187.654 3.92897 190.672 3.216 193.717 2.66756C194.485 2.53045 195.253 2.39333 196.021 2.28365L198.325 1.95458L200.629 1.70779C201.398 1.62552 202.166 1.57068 202.961 1.51583C215.36 0.693172 227.924 2.33849 239.61 6.53406C251.296 10.7296 262.104 17.3383 271.157 25.8392L271.239 25.9214L271.212 26.0037C266.192 38.3162 258.264 49.4221 248.416 58.3343C238.568 67.2738 226.772 74.0197 214.126 78.0781L212.946 78.462L211.739 78.8185C210.944 79.0379 210.148 79.2847 209.353 79.5041C207.734 79.888 206.143 80.3267 204.497 80.6284C202.879 80.9849 201.233 81.2317 199.587 81.5333C198.764 81.6704 197.941 81.7527 197.118 81.8624L195.884 82.0269L194.649 82.1366C188.038 82.7947 181.345 82.7673 174.761 81.9995C161.539 80.5187 148.701 76.0763 137.372 69.1111L137.262 69.0563L137.344 68.974C142.94 64.1752 148.043 58.8553 153.227 53.6177C158.412 48.4075 163.706 43.2247 169.686 38.892C175.639 34.5319 182.332 31.2413 189.355 28.9927C192.866 27.8958 196.46 27.0183 200.108 26.4699C203.757 25.9214 207.433 25.6198 211.108 25.6198C207.433 25.6198 203.729 25.9214 200.108 26.4973C196.46 27.0732 192.866 27.9232 189.355 29.0475C182.332 31.2961 175.666 34.6142 169.714 38.9743C163.734 43.307 158.467 48.4898 153.282 53.7274C148.125 58.965 143.023 64.3123 137.426 69.1385V69.0014C148.756 75.9118 161.566 80.3541 174.761 81.8349C181.345 82.6028 188.011 82.6028 194.622 81.9446L195.856 81.8349L197.091 81.6704C197.914 81.5607 198.737 81.451 199.56 81.3413C201.206 81.0671 202.824 80.8203 204.442 80.4364C206.061 80.1348 207.679 79.696 209.271 79.3121C210.066 79.0927 210.862 78.8734 211.657 78.6266L212.864 78.2701L214.044 77.8862C226.662 73.8277 238.431 67.0819 248.224 58.1697C258.044 49.285 265.917 38.2065 270.937 25.9489L270.965 26.1134C261.94 17.6674 251.159 11.0587 239.5 6.89055C227.842 2.7224 215.333 1.07708 202.989 1.92716C202.221 1.98201 201.452 2.03685 200.684 2.11912L198.38 2.36591L196.076 2.69498C195.308 2.80466 194.54 2.9692 193.799 3.07889C190.754 3.62733 187.736 4.3403 184.774 5.21781C181.811 6.09531 178.903 7.13735 176.05 8.34391C173.198 9.55048 170.4 10.8667 167.711 12.375C165.023 13.8832 162.389 15.5285 159.893 17.3383C157.397 19.1482 154.955 21.0403 152.596 23.0695C147.905 27.1006 143.489 31.4607 139.155 35.8756C134.793 40.2906 130.514 44.7604 125.987 49.0108C124.863 50.0802 123.71 51.1223 122.558 52.1643C121.379 53.1789 120.227 54.221 119.02 55.2081C118.416 55.7017 117.84 56.1953 117.209 56.6615C116.606 57.1277 116.002 57.6213 115.371 58.0875L113.506 59.4586L113.039 59.8151L112.546 60.1441L111.586 60.8022L110.625 61.4604C110.296 61.6798 109.967 61.8717 109.638 62.0911C108.98 62.5024 108.321 62.9137 107.663 63.3251L105.633 64.4768C105.468 64.5591 105.304 64.6688 105.112 64.751L104.59 65.0252L103.548 65.5463L102.506 66.0673C102.149 66.2318 101.792 66.3963 101.436 66.5334C100.723 66.8351 100.009 67.1642 99.2961 67.4658L97.1289 68.2885L96.5803 68.5078L96.0317 68.6998L94.9344 69.0563C93.4531 69.5773 91.9443 69.9064 90.4356 70.3177C89.6675 70.4822 88.8994 70.6193 88.1587 70.7839C87.7747 70.8661 87.3906 70.9484 87.0066 71.0032L85.8544 71.1678C82.7821 71.6339 79.6823 71.8533 76.555 71.8259C70.328 71.7711 64.1284 70.7564 58.2305 68.8643C55.2679 67.9045 52.3875 66.7254 49.6169 65.3543C46.8463 63.9558 44.158 62.3653 41.6068 60.5829C31.4296 53.4531 23.3646 43.3344 18.7835 31.7623L18.7286 31.6526L18.8109 31.5978C23.0629 28.5265 27.7537 26.086 32.6914 24.3035C37.6292 22.5211 42.7864 21.3968 47.9984 20.9306C48.3276 20.8758 48.6568 20.8758 48.986 20.8484L49.9735 20.7935C50.6319 20.7661 51.2903 20.7112 51.9486 20.6838H53.9237H54.9113H55.4051L55.8988 20.7112C58.5049 20.8209 61.1383 21.0403 63.7169 21.4516C68.9015 22.2743 73.9764 23.7277 78.8044 25.7569C83.6325 27.8136 88.2136 30.4461 92.4655 33.4899C96.7175 36.5612 100.585 40.126 104.152 43.9651C111.229 51.6981 116.88 60.6651 121.187 70.208C121.735 71.3871 122.229 72.6211 122.75 73.8003C123.025 74.4036 123.244 75.0069 123.491 75.6101C123.738 76.2134 123.985 76.8167 124.204 77.4474C125.109 79.9154 125.96 82.3834 126.701 84.8788C127.469 87.3742 128.127 89.9244 128.73 92.4747C129.307 95.0249 129.828 97.6026 130.239 100.18C131.035 105.363 131.693 110.546 132.159 115.756L132.351 117.703L132.516 119.65L132.845 123.571L133.12 127.493L133.257 129.44L133.366 131.387C133.997 141.834 134.354 152.282 134.519 162.757C134.601 167.995 134.601 173.233 134.601 178.443C134.491 183.543 134.409 188.781 134.244 194.018Z" stroke="#00FEB2" stroke-width="1.97514" mask="url(#path-1-outside-1_63_557)"/>
<path d="M44.1305 32.6675C21.0877 36.5066 1.61106 34.6968 0.596079 28.6365C-0.418901 22.5762 17.4393 14.5416 40.482 10.7025C63.5248 6.8634 83.0015 8.67325 84.0165 14.7335C85.004 20.7938 67.1733 28.8284 44.1305 32.6675Z" fill="url(#paint0_radial_63_557)"/>
<path d="M259.059 63.5447C242.079 80.0802 224.852 89.9521 220.572 85.5646C216.293 81.1771 226.58 64.2029 243.533 47.6674C260.513 31.1319 277.74 21.26 282.02 25.6475C286.327 30.035 276.04 47.0092 259.059 63.5447Z" fill="url(#paint1_radial_63_557)"/>
<path opacity="0.6" d="M14.7235 195.253C14.7235 208.223 67.6945 218.726 133.065 218.726C198.407 218.726 251.406 208.223 251.406 195.253C251.406 182.282 198.435 171.779 133.065 171.779C67.722 171.779 14.7235 182.309 14.7235 195.253Z" fill="url(#paint2_radial_63_557)" fill-opacity="0.5"/>
<defs>
<radialGradient id="paint0_radial_63_557" cx="0" cy="0" r="1" gradientUnits="userSpaceOnUse" gradientTransform="translate(42.2962 21.6957) rotate(80.6053) scale(11.1297 42.2708)">
<stop offset="0.0708332" stop-color="#88FFDB"/>
<stop offset="1" stop-opacity="0"/>
</radialGradient>
<radialGradient id="paint1_radial_63_557" cx="0" cy="0" r="1" gradientUnits="userSpaceOnUse" gradientTransform="translate(251.307 55.6103) rotate(45.7833) scale(11.1039 42.9005)">
<stop stop-color="white"/>
<stop offset="0.328125" stop-color="#00FEB2"/>
<stop offset="1" stop-color="#DFF7FA" stop-opacity="0"/>
</radialGradient>
<radialGradient id="paint2_radial_63_557" cx="0" cy="0" r="1" gradientUnits="userSpaceOnUse" gradientTransform="translate(133.072 195.263) rotate(179.999) scale(118.333 23.4752)">
<stop stop-color="white"/>
<stop offset="1" stop-opacity="0"/>
</radialGradient>
</defs>
</svg>
