<svg width="45" height="45" fill="none" xmlns="http://www.w3.org/2000/svg"><path d="M22.185 43.824c11.901 0 21.549-9.642 21.549-21.537S34.086.75 22.185.75C10.285.75.637 10.392.637 22.287s9.647 21.537 21.548 21.537z" stroke="#00FEB2"/><g clip-path="url(#clip0_210_14)"><path d="M22.595 23.543c.054-.933.511-1.757 1.202-2.34a3.995 3.995 0 012.58-.922 4 4 0 012.58.922c.69.583 1.147 1.407 1.2 2.34.052.96-.333 1.85-1.01 2.511a3.954 3.954 0 01-2.77 1.094 3.959 3.959 0 01-2.772-1.094c-.676-.662-1.063-1.552-1.01-2.51zm-6.02 1.887c.007.366.124 1.076.299 1.63a8.6 8.6 0 001.858 3.217 9.6 9.6 0 003.252 2.335c1.345.593 2.8.895 4.27.886 1.47.003 2.923-.303 4.266-.9a9.666 9.666 0 003.25-2.345 8.666 8.666 0 001.857-3.223 8.123 8.123 0 00.291-3.586 8.31 8.31 0 00-1.185-3.242 9.058 9.058 0 00-2.16-2.384h.002l-8.748-6.716-.023-.018c-.574-.44-1.54-.438-2.17.003-.639.446-.71 1.184-.144 1.65l-.001.002 3.647 2.967-11.118.011h-.016c-.919.002-1.802.605-1.977 1.368-.18.775.443 1.42 1.4 1.423v.002l5.635-.011-10.057 7.72-.04.029c-.948.725-1.254 1.934-.656 2.698.606.778 1.896.78 2.855.005l5.488-4.49s-.082.606-.075.969zm14.105 2.03c-1.132 1.153-2.714 1.806-4.427 1.808-1.715.005-3.299-.644-4.43-1.794a5.262 5.262 0 01-1.209-1.892 4.995 4.995 0 01.329-4.106 5.487 5.487 0 011.345-1.6c1.1-.895 2.498-1.38 3.962-1.382 1.465-.002 2.864.479 3.965 1.371.56.456 1.015.996 1.343 1.595a4.943 4.943 0 01.33 4.103 5.3 5.3 0 01-1.208 1.897z" fill="#fff"/></g><defs><clipPath id="clip0_210_14"><path fill="#fff" transform="translate(8 8.127)" d="M0 0h28v28H0z"/></clipPath></defs></svg>