<svg width="44" height="45" fill="none" xmlns="http://www.w3.org/2000/svg"><g filter="url(#filter0_b_210_15)"><circle cx="22" cy="22.127" r="21.5" stroke="#00FEB2"/></g><path d="M29.178 11.127H13.893c-1.595 0-2.893 1.323-2.893 2.95v15.592c0 1.626 1.298 2.95 2.893 2.95h15.291c1.595 0 2.893-1.324 2.893-2.95V14.077c-.006-1.633-1.298-2.95-2.899-2.95zm2.207 18.536c0 1.241-.99 2.25-2.2 2.25H13.893c-1.218 0-2.207-1.009-2.207-2.25V16.257h19.699v13.406zm0-14.112H11.686v-1.474c0-1.236.989-2.244 2.207-2.244h15.291c1.212 0 2.2 1.008 2.2 2.244v1.474z" fill="#fff"/><path d="M16.39 13.364h-1.94a.349.349 0 00-.347.353c0 .196.155.353.346.353h1.941a.349.349 0 00.346-.353.349.349 0 00-.346-.353zm4.153 0h-1.94a.349.349 0 00-.347.353c0 .196.155.353.346.353h1.941a.349.349 0 00.347-.353.349.349 0 00-.347-.353zm-6.113 8.049a.349.349 0 00.346-.353v-1.777h1.96a.349.349 0 00.346-.353.349.349 0 00-.346-.353h-2.652v2.483a.35.35 0 00.346.353zm14.273 5.08a.349.349 0 00-.347.353v1.777h-1.959a.35.35 0 00-.346.353c0 .195.154.353.346.353h2.652v-2.483a.353.353 0 00-.346-.353zM14.45 27.829a1.615 1.615 0 002.218.605l10.26-6.044v-.007l1.305-2.142.97-.625a.375.375 0 00.167-.308.393.393 0 00-.055-.196.355.355 0 00-.495-.113l-.81.523c-1.885-.031-2.454-.025-2.682-.013h-.019l-10.266 6.044a1.69 1.69 0 00-.594 2.276zm12.986-7.601l-.897 1.468-.834-1.474c.358 0 1.032 0 1.73.006zm-2.38.258l.933 1.651-2.633 1.551-.97-1.632 2.67-1.57zm-3.27 1.922l.97 1.627-4.759 2.804-.976-1.626 4.765-2.805zm-6.397 3.77l1.038-.612.977 1.626-1.076.637a.923.923 0 01-1.273-.347.958.958 0 01.334-1.305z" fill="#fff"/><defs><filter id="filter0_b_210_15" x="-5" y="-4.873" width="54" height="54" filterUnits="userSpaceOnUse" color-interpolation-filters="sRGB"><feFlood flood-opacity="0" result="BackgroundImageFix"/><feGaussianBlur in="BackgroundImageFix" stdDeviation="2.5"/><feComposite in2="SourceAlpha" operator="in" result="effect1_backgroundBlur_210_15"/><feBlend in="SourceGraphic" in2="effect1_backgroundBlur_210_15" result="shape"/></filter></defs></svg>