<svg width="44" height="45" fill="none" xmlns="http://www.w3.org/2000/svg"><g filter="url(#filter0_b_210_16)"><circle cx="22" cy="22.127" r="21.5" stroke="#00FEB2"/></g><path d="M21.61 17.912a6.297 6.297 0 01-3.535 4.242l-1.028-1.139-1.729 1.729a6.414 6.414 0 01-5.054-2.573c.183.059.373.091.563.104a.517.517 0 00.59-.425.526.526 0 000-.144V15.05a.763.763 0 00-.296-.629.793.793 0 00-.68-.144c-.8.183-1.44 2.167-1.44 2.167a6.3 6.3 0 012.2-4.832 6.489 6.489 0 013.247-1.486 2.472 2.472 0 00-1.362 1.984c0 1.087.661.943.857.799v6.285c.033.079.079.15.125.223a.928.928 0 00.766.38c.661 0 1.525-.753 1.525-.753v-5.062a1.752 1.752 0 00-.785-1.355c.452-.065.916.04 1.29.295.104-.131.216-.25.334-.367a6.338 6.338 0 013.58-1.827s-1.885 1.46-1.885 3.418c0 1.46.04 5.009.04 5.009.713.668 1.748-.295 2.677-1.244zm-2.54 14.784v-4.453l8.904-5.5h5.251c.223 0 .4.177.4.4v9.553h-5.579l-.006-1.65a.9.9 0 01.439-.78l4.334-2.625a.269.269 0 00-.144-.497l-4.616.026-8.983 5.526zm-8.8-2.586a.112.112 0 01-.085-.046.095.095 0 01.033-.131l24.638-14.725a.095.095 0 11.098.164L10.323 30.095c-.02.007-.033.014-.053.014z" fill="#fff"/><defs><filter id="filter0_b_210_16" x="-5" y="-4.873" width="54" height="54" filterUnits="userSpaceOnUse" color-interpolation-filters="sRGB"><feFlood flood-opacity="0" result="BackgroundImageFix"/><feGaussianBlur in="BackgroundImageFix" stdDeviation="2.5"/><feComposite in2="SourceAlpha" operator="in" result="effect1_backgroundBlur_210_16"/><feBlend in="SourceGraphic" in2="effect1_backgroundBlur_210_16" result="shape"/></filter></defs></svg>