<svg width="45" height="45" fill="none" xmlns="http://www.w3.org/2000/svg"><path d="M22.731 44.4c11.919 0 21.58-9.662 21.58-21.58 0-11.92-9.661-21.581-21.58-21.581-11.918 0-21.58 9.662-21.58 21.58 0 11.919 9.662 21.58 21.58 21.58z" stroke="#00FEB2"/><path d="M35.37 25.92a13.099 13.099 0 01-7.273 8.762l-2.087-2.324-3.577 3.576c-4.113-.06-7.928-2.026-10.432-5.305.358.119.775.179 1.192.238a.996.996 0 001.193-.894v-9.896a1.69 1.69 0 00-.597-1.312c-.417-.297-.894-.417-1.37-.297-1.67.357-2.981 4.47-2.981 4.47-.06-3.815 1.61-7.451 4.53-9.955 1.908-1.61 4.233-2.683 6.677-3.04a5.16 5.16 0 00-2.802 4.053c0 2.266 1.371 1.968 1.789 1.67v12.936c.06.179.178.298.238.477.358.477.954.775 1.55.775 1.371 0 3.16-1.55 3.16-1.55V17.87c-.06-1.132-.656-2.146-1.61-2.801.954-.12 1.908.06 2.683.596.238-.239.417-.537.715-.775 1.967-2.027 4.59-3.339 7.392-3.756 0 0-3.875 2.98-3.875 7.034 0 2.981.06 10.314.06 10.314 1.371 1.37 3.517-.596 5.425-2.564z" fill="#fff"/></svg>