<svg width="124" height="124" fill="none" xmlns="http://www.w3.org/2000/svg"><path d="M85.795 26H37.211A10.219 10.219 0 0027 36.207v48.587a10.215 10.215 0 0010.207 10.208H85.79c1.734.003 3.44-.44 4.953-1.286a10.017 10.017 0 001.521-1.037A10.198 10.198 0 0096 84.793V36.207A10.222 10.222 0 0085.795 26zm0 67.168H37.211a8.289 8.289 0 01-4.033-1.041L43.835 73.67H59.39c0-5.977-3.14-10.998-8.424-12.357l8.112-14.049a2.8 2.8 0 014.852 0l25.9 44.863a8.297 8.297 0 01-4.035 1.041zm8.371-8.372a8.35 8.35 0 01-2.83 6.269L65.52 46.345a4.641 4.641 0 00-8.036 0L49.027 60.99l-.342.6c.66.033 1.316.126 1.96.28 4.776 1.14 7.717 5.414 8.09 10.659H42.372l-.662 1.144-10.04 17.395a8.348 8.348 0 01-2.832-6.273V36.21a8.38 8.38 0 018.37-8.372H85.79a8.38 8.38 0 018.371 8.37l.004 48.59z" fill="#fff"/><g filter="url(#filter0_b_206_3)"><circle cx="62" cy="62" r="61.5" stroke="#00FEB2"/></g><defs><filter id="filter0_b_206_3" x="-5" y="-5" width="134" height="134" filterUnits="userSpaceOnUse" color-interpolation-filters="sRGB"><feFlood flood-opacity="0" result="BackgroundImageFix"/><feGaussianBlur in="BackgroundImageFix" stdDeviation="2.5"/><feComposite in2="SourceAlpha" operator="in" result="effect1_backgroundBlur_206_3"/><feBlend in="SourceGraphic" in2="effect1_backgroundBlur_206_3" result="shape"/></filter></defs></svg>