<svg width="124" height="124" fill="none" xmlns="http://www.w3.org/2000/svg"><path d="M86.15 28H37.075c-5.12 0-9.287 4.25-9.287 9.47v50.06c0 5.22 4.167 9.47 9.287 9.47H86.17c5.12 0 9.287-4.25 9.287-9.47V37.47C95.437 32.229 91.29 28 86.15 28zm7.084 59.51c0 3.986-3.175 7.224-7.064 7.224H37.075c-3.91 0-7.084-3.238-7.084-7.224V44.471h63.243V87.51zm0-45.305H29.991V37.47c0-3.966 3.175-7.204 7.084-7.204H86.17c3.89 0 7.064 3.238 7.064 7.204v4.735z" fill="#fff"/><path d="M45.092 35.183h-6.23a1.12 1.12 0 00-1.112 1.133 1.12 1.12 0 001.111 1.133h6.231a1.12 1.12 0 001.112-1.133 1.12 1.12 0 00-1.112-1.133zm13.335 0h-6.231a1.12 1.12 0 00-1.111 1.133 1.12 1.12 0 001.111 1.133h6.231a1.12 1.12 0 001.111-1.133 1.12 1.12 0 00-1.11-1.133zm-19.626 25.84a1.12 1.12 0 001.111-1.133v-5.706h6.291a1.12 1.12 0 001.111-1.133 1.12 1.12 0 00-1.11-1.134H37.69v7.973a1.12 1.12 0 001.111 1.133zm45.821 16.309a1.12 1.12 0 00-1.111 1.133v5.706h-6.29a1.12 1.12 0 00-1.112 1.133 1.12 1.12 0 001.111 1.133h8.513v-7.972c0-.607-.496-1.133-1.11-1.133zm-45.76 4.289a5.184 5.184 0 004.524 2.651 5.14 5.14 0 002.6-.708l32.941-19.405v-.02l4.188-6.88 3.115-2.003c.337-.223.536-.607.536-.992 0-.202-.06-.425-.179-.627A1.14 1.14 0 0085 53.273l-2.6 1.68c-6.052-.102-7.878-.082-8.612-.041h-.06L40.767 74.317c-2.5 1.517-3.354 4.775-1.905 7.305zM80.555 57.22l-2.878 4.714-2.679-4.735c1.151 0 3.314 0 5.557.02zm-7.64.83l2.996 5.3-8.454 4.978-3.115-5.24 8.573-5.039zm-10.498 6.17l3.116 5.221-15.28 9.005-3.136-5.22 15.3-9.005zm-20.539 12.1l3.334-1.963 3.135 5.22-3.453 2.044a2.963 2.963 0 01-2.262.304 2.94 2.94 0 01-1.825-1.416c-.854-1.478-.358-3.34 1.071-4.189z" fill="#fff"/><g filter="url(#filter0_b_206_2)"><circle cx="62" cy="62" r="61.5" stroke="#00FEB2"/></g><defs><filter id="filter0_b_206_2" x="-5" y="-5" width="134" height="134" filterUnits="userSpaceOnUse" color-interpolation-filters="sRGB"><feFlood flood-opacity="0" result="BackgroundImageFix"/><feGaussianBlur in="BackgroundImageFix" stdDeviation="2.5"/><feComposite in2="SourceAlpha" operator="in" result="effect1_backgroundBlur_206_2"/><feBlend in="SourceGraphic" in2="effect1_backgroundBlur_206_2" result="shape"/></filter></defs></svg>