<svg width="124" height="124" fill="none" xmlns="http://www.w3.org/2000/svg"><g filter="url(#filter0_b_206_6)"><circle cx="62" cy="62" r="61.5" stroke="#00FEB2"/></g><path d="M60.861 51.758c-1.359 5.755-5.167 10.531-10.335 12.949l-3.004-3.477-5.053 5.275c-5.818-.08-11.292-2.977-14.775-7.853a6.67 6.67 0 001.646.32c.823.14 1.589-.46 1.723-1.299.019-.14.019-.28 0-.44V43.027c.019-.739-.287-1.458-.862-1.918a2.243 2.243 0 00-1.99-.44c-2.335.56-4.21 6.615-4.21 6.615-.039-5.675 2.315-11.07 6.43-14.747A18.614 18.614 0 0139.924 28c-2.24 1.159-3.752 3.457-3.981 6.054 0 3.317 1.933 2.878 2.507 2.438v19.183c.096.24.23.46.364.68a2.676 2.676 0 002.239 1.158c1.933 0 4.46-2.298 4.46-2.298V39.77c-.097-1.678-.958-3.217-2.297-4.136 1.32-.2 2.679.12 3.77.9.306-.4.631-.76.976-1.12 2.832-2.997 6.488-4.955 10.468-5.575 0 0-5.511 4.456-5.511 10.43 0 4.457.114 15.287.114 15.287 2.087 2.038 5.11-.9 7.828-3.797zm-7.426 44.721V82.891l26.029-16.785h15.349c.65 0 1.167.54 1.167 1.22v29.153H79.674l-.019-5.035c0-.98.478-1.879 1.282-2.378l12.67-8.013c.67-.44.383-1.519-.421-1.519l-13.493.08L53.435 96.48zm-25.722-7.413a.324.324 0 01-.248-.14c-.077-.14-.039-.32.095-.4l72.018-44.94a.272.272 0 01.383.1c.077.14.038.32-.096.4l-71.998 44.94c-.058.02-.096.04-.154.04z" fill="#fff"/><defs><filter id="filter0_b_206_6" x="-5" y="-5" width="134" height="134" filterUnits="userSpaceOnUse" color-interpolation-filters="sRGB"><feFlood flood-opacity="0" result="BackgroundImageFix"/><feGaussianBlur in="BackgroundImageFix" stdDeviation="2.5"/><feComposite in2="SourceAlpha" operator="in" result="effect1_backgroundBlur_206_6"/><feBlend in="SourceGraphic" in2="effect1_backgroundBlur_206_6" result="shape"/></filter></defs></svg>