<svg width="126" height="126" fill="none" xmlns="http://www.w3.org/2000/svg"><path fill-rule="evenodd" clip-rule="evenodd" d="M47.613 41.918c1.731-5.091 7.454-9.414 14.92-9.414 9.23 0 15.5 6.41 15.5 12.917s-6.27 12.916-15.5 12.916a5.167 5.167 0 00-5.168 5.167v10.333a5.167 5.167 0 1010.334 0v-5.64c11.382-2.11 20.666-11.045 20.666-22.776 0-13.467-12.235-23.25-25.833-23.25-11.258 0-21.352 6.57-24.702 16.42a5.167 5.167 0 009.783 3.327zm14.92 62.919a7.75 7.75 0 100-15.5 7.75 7.75 0 000 15.5z" fill="#fff"/><path d="M125 63.468c0 34.234-27.751 62-62 62-34.25 0-62-27.766-62-62s27.75-62 62-62c34.249 0 62 27.766 62 62z" stroke="#00FEB2"/></svg>