<svg width="63" height="35" fill="none" xmlns="http://www.w3.org/2000/svg"><path d="M17.128.004c3.14-.009 6.29 0 9.43 0 .009 2.059.009 4.127 0 6.186H18.91c-1.341.009-2.708-.052-4.032.242-4.118.9-7.605 4.335-8.453 8.479-.527 2.647-.19 5.52 1.186 7.873 1.116 1.886 2.76 3.47 4.706 4.473 1.627.84 3.478 1.16 5.295 1.16H28.41v-6.645H17.292v-6.16h17.286v18.973H20.372c-2.145-.026-4.308.113-6.42-.303a16.114 16.114 0 01-4.896-1.721 17.91 17.91 0 01-6.922-6.827c-1.938-3.4-2.492-7.466-1.92-11.308a16.187 16.187 0 013.443-7.795c1.869-2.31 4.256-4.222 7.008-5.364C12.715.41 14.93.03 17.128.004z" fill="#fff"/><path d="M28.479.004c4.94.008 9.889.026 14.83.034 1.591.01 3.192-.043 4.775.156 1.808.242 3.6.736 5.234 1.558 1.644.795 3.124 1.903 4.43 3.175 2.085 2.007 3.72 4.516 4.542 7.302.736 2.474.883 5.113.52 7.674-.485 3.78-2.432 7.32-5.218 9.924-2.353 2.31-5.39 3.945-8.651 4.481-1.627.33-3.288.26-4.932.269h-6.835V28.45h7.787c1.427.009 2.88-.086 4.239-.536 2.189-.71 4.084-2.163 5.468-3.989 1.566-2.024 2.293-4.629 2.146-7.172-.087-2.483-1.082-4.932-2.769-6.757-1.48-1.67-3.443-2.968-5.64-3.47-1.377-.372-2.821-.311-4.232-.311h-9.569v3.962H28.48V.004z" fill="#fff"/></svg>