<svg version="1.1" id="Layer_1" xmlns="http://www.w3.org/2000/svg" x="0" y="0" xml:space="preserve" width="50" height="50"><path d="M50 25a25 25 0 01-25 25A25 25 0 010 25a25 25 0 0150 0z" fill="#00feb2"/><path d="M30.159 49.463a24.884 24.884 0 0012.519-6.786 24.984 24.984 0 004.626-6.373l-7.046-7.118L25 17.873 12.48 31.924l17.679 17.539z" fill="#00feb2"/><path d="M37.52 31.925L25 19.405l-12.52 12.52-2.738-2.738L25 13.929l15.258 15.258z" fill="#0d0421"/><path d="M25 13.929l15.258 15.258-2.738 2.738L25 19.405z" fill="#0d0421"/></svg>