<svg width="61" height="61" fill="none" xmlns="http://www.w3.org/2000/svg"><path d="M53.697.84H7.983A7.15 7.15 0 00.84 7.983v45.714a7.15 7.15 0 007.143 7.143h45.714a7.15 7.15 0 007.143-7.143V7.983A7.15 7.15 0 0053.697.84zm-5.706 26.176c-.324.03-.652.05-.985.05-3.748 0-7.04-1.927-8.956-4.84v16.481c0 6.727-5.454 12.181-12.181 12.181-6.728 0-12.182-5.454-12.182-12.18 0-6.728 5.454-12.182 12.182-12.182.254 0 .502.023.752.038v6.003c-.25-.03-.495-.076-.752-.076a6.216 6.216 0 00-6.218 6.218 6.216 6.216 0 006.218 6.217c3.434 0 6.467-2.706 6.467-6.14l.06-27.992h5.737c.54 5.13 4.681 9.179 9.858 9.55v6.672z" fill="#00FEB2"/></svg>