<svg width="160" height="160" fill="none" xmlns="http://www.w3.org/2000/svg"><path d="M40.958 85.358c2.898 0 5.533.298 8.065-.06 8.675-1.223 15.724-5.497 20.982-12.197 3.05-3.897 5.319-8.4 7.831-12.694 1.851-3.162 3.305-6.581 5.36-9.603 4.16-6.114 10.333-7.714 17.127-4.424 11.289 5.458 17.737 14.514 19.853 26.572.925 5.268.752 10.527-.57 15.736a8.888 8.888 0 01-.366 1.113c-.041.1-.193.16-.336.269-.152-.09-.376-.14-.457-.269-4.069-7.008-12.754-7.346-18.907-4.702-4.577 1.959-8.004 5.249-10.425 9.394-2.482 4.245-4.455 8.758-6.875 13.042-1.82 3.231-3.875 6.362-6.082 9.364-.529.716-2.136 1.173-3.112 1.004-15.673-2.584-28.996-15.527-31.905-30.865-.112-.557-.122-1.134-.183-1.68z" fill="#fff"/><path d="M108.022 122.098c3.295-3.837 6.529-7.077 9.143-10.745 9.042-12.705 12.235-26.681 7.465-41.632-3.549-11.124-10.963-19.653-21.419-25.359-2.532-1.381-5.614-2.107-8.533-2.455-5.37-.646-9.977 1.282-13.008 5.716a89.15 89.15 0 00-6.702 11.531c-3.855 8.002-8.625 15.18-16.639 19.782-3.946 2.266-8.228 3.5-12.794 3.38-9.57-.249-15.073-7.804-14.493-16.67.467-7.208 4.098-13.073 8.797-18.272 12.357-13.658 28.04-18.897 46.408-16.998.305.03.61.149.915.636-.742.03-1.474.07-2.217.1-12.326.576-23.91 3.38-33.776 11.083-5.594 4.364-9.753 9.832-12.032 16.512-.539 1.58-.783 3.32-.793 4.99-.04 4.821 3.295 8.201 8.228 8.678 6.224.607 11.025-2.028 14.523-6.66 2.594-3.43 4.475-7.386 6.56-11.163 1.333-2.406 2.431-4.941 3.662-7.396 5.716-11.462 15.266-14.732 27.358-11.63 9.683 2.474 16.71 8.737 22.467 16.46 6.59 8.838 9.113 18.759 8.838 29.664-.264 10.537-3.122 20.06-9.509 28.54-3.377 4.483-7.415 8.34-12.449 11.908z" fill="#fff"/><path d="M70.96 41.39c-3.874 7.246-7.302 14.165-11.207 20.806-2.533 4.304-6.479 7.087-11.92 7.067-.6 0-1.21-.06-1.78-.199-3.214-.765-3.844-1.938-2.522-4.89 4.943-11.025 13.303-18.39 24.948-22.228.651-.208 1.343-.308 2.482-.556zm-27.348 76.404s12.256 8.937 23.89 6.293c11.636-2.644 14.33-8.728 18.074-16.85 3.742-8.121 10.8-22.744 21.815-20.507 11.015 2.236 10.801 10.557 4.567 21.114-6.235 10.557-23.067 20.716-36.146 21.124-13.09.407-23.067-3.052-32.2-11.174z" fill="#fff"/><g filter="url(#filter0_b_280_44)"><circle cx="80" cy="80" r="79.5" stroke="#00FEB2"/></g><defs><filter id="filter0_b_280_44" x="-5" y="-5" width="170" height="170" filterUnits="userSpaceOnUse" color-interpolation-filters="sRGB"><feFlood flood-opacity="0" result="BackgroundImageFix"/><feGaussianBlur in="BackgroundImageFix" stdDeviation="2.5"/><feComposite in2="SourceAlpha" operator="in" result="effect1_backgroundBlur_280_44"/><feBlend in="SourceGraphic" in2="effect1_backgroundBlur_280_44" result="shape"/></filter></defs></svg>