<svg width="160" height="160" fill="none" xmlns="http://www.w3.org/2000/svg"><path d="M100.396 59.691c-7.373 0-13.369 6.469-13.369 14.423s5.996 14.422 13.369 14.422c7.373 0 13.369-6.468 13.369-14.422 0-7.954-5.996-14.423-13.369-14.423zm12.989 13.641l-.557.022a15.56 15.56 0 00-.121-1.278l.552-.104c.055.448.101.907.126 1.36zm-.228-1.944l-.552.103a12.86 12.86 0 00-.288-1.245l.531-.186c.122.432.228.88.309 1.328zm-8.7-5.84c-.324.366-.653 1.273-.916 2.005-.137.382-.294.82-.355.857l-.04.022c-.172.093-.309.164-.476.41-.112.158-.375.164-.613.175-.101.005-.197.005-.278.022-.178.032-.198.256-.218.491-.015.17-.031.339-.101.454-.162.267-.365.6-.436.945-.025.109-.02.246-.02.371 0 .246.005.48-.167.568-.076-.016-.147-.032-.218-.038v-7.337a8.344 8.344 0 013.838 1.055zm-3.413-1.42V61.1c.299.016.593.044.887.087l-.304 3.005a5.44 5.44 0 00-.583-.066zm8.655 8.554l-.35-1.196a8.904 8.904 0 00-.187-.645l-.355-1.223 2.451-1.208a13.759 13.759 0 011.15 4.278h-2.709v-.006zm2.744.394c.015.213.026.431.031.644h-2.806a9.072 9.072 0 00-.045-.644h2.82zm-9.92.792a2.364 2.364 0 00-.451-1.186c.456-.453 1.231-1.218 1.514-1.546a.74.74 0 00.157-.295l3.115-3.36a9.704 9.704 0 011.919 3.333l.253.869c.172.704.269 1.436.284 2.18h-6.791v.005zm6.791.492c-.056 2.381-.927 4.648-2.456 6.38l-4.801-5.179c.258-.344.42-.759.461-1.202h6.796zm-.775-5.043a10.9 10.9 0 00-.299-.552l2.365-1.628c.177.3.339.607.496.918l-2.562 1.262zm-.501-.874a9.697 9.697 0 00-2.168-2.41l.015-.092c.061-.563.092-.874-.096-.907-.01 0-.192-.033-.471.033l1.327-2.109a12.63 12.63 0 013.752 3.846l-2.359 1.64zm-2.279-2.016c.273.224.537.465.78.716l-2.806 3.026c-.03-.19-.035-.311.046-.371.223-.164.177-.306.121-.503-.02-.076-.045-.158-.065-.262-.036-.197.025-.23.222-.333.132-.071.309-.164.527-.35.42-.36.937-1.267 1.175-1.923zm-4.239 7.44a1.4 1.4 0 00-.101-.316c.111-.191.213-.371.263-.454.157.23.259.492.294.77h-.456zm.451.492a1.78 1.78 0 01-.304.782l-.319-.345c.081-.13.137-.278.167-.437h.456zm-.942.787l.319.344a1.53 1.53 0 01-.724.328v-.492c.147-.032.284-.092.405-.18zm.709.765l4.801 5.179c-1.606 1.65-3.707 2.59-5.915 2.65v-7.332c.41-.044.795-.218 1.114-.497zm3.221 6.927l.587 3.07a11.387 11.387 0 01-3.702 1.153l-.633-2.967a8.78 8.78 0 003.748-1.256zm.425.295l1.55 1.945c-.34.235-.689.453-1.049.65l-.501-2.595zm.015-.585a9.825 9.825 0 002.73-2.895c1.048 1.267 1.798 2.19 1.863 2.31a.2.2 0 01.016-.196l.111.088a12.735 12.735 0 01-2.881 3.01l-1.839-2.317zm3.368-2.72l2.046.896c-.178.322-.37.639-.573.945-.167-.251-.572-.754-1.473-1.841zm-.39-.596c.177-.322.344-.655.486-1.005l2.481 1.41c-.111.251-.227.497-.349.743l-2.618-1.148zm.628-1.365c.309-.814.516-1.683.613-2.584l2.805.125a13.818 13.818 0 01-.932 3.874l-2.486-1.415zm.648-2.978c.02-.256.025-.513.025-.775h2.801c0 .306-.01.606-.031.901l-2.795-.126zm3.028-5.386l-.531.186a15.95 15.95 0 00-.446-1.191l.501-.263c.178.41.34.836.476 1.268zm-.719-1.803l-.501.262a12.68 12.68 0 00-.598-1.114l.461-.333c.233.388.451.786.638 1.185zm-.942-1.672l-.46.334c-.228-.35-.477-.689-.735-1.011l.41-.399c.279.344.542.705.785 1.076zm-2.061-2.463c.314.295.623.617.912.95l-.41.399a13.838 13.838 0 00-.856-.896l.354-.453zm-1.443-1.186c.349.252.699.52 1.028.809l-.359.459a12.866 12.866 0 00-.963-.754l.294-.514zm-1.58-.956c.385.197.76.41 1.119.645l-.293.508c-.34-.219-.689-.42-1.054-.607l.228-.546zm-1.691-.71a13.4 13.4 0 011.195.47l-.228.552a13.407 13.407 0 00-1.119-.443l.152-.579zm-1.768-.448c.416.071.831.17 1.241.284l-.152.58a10.88 10.88 0 00-1.165-.268l.076-.596zm-.187.972c1.448.246 2.816.776 4.046 1.525l-1.58 2.507a8.937 8.937 0 00-2.775-1.027l.309-3.005zm-1.62-1.147c.425.011.85.044 1.266.093l-.076.596c-.395-.05-.795-.082-1.19-.088v-.6zm.01.994v3.022c-.096-.006-.188-.006-.284-.006h-.081l-.79-1.48.471-1.535c.132-.006.263-.006.395-.006.101 0 .193 0 .289.005zm-2.396 12.69c-.633-.016-.805-.097-.85-.147a1.371 1.371 0 01-.172-.224c-.087-.125-.162-.24-.284-.245-.101-.006-.213.065-.35.224-.106.125-.151.125-.162.12-.04-.011-.065-.131-.085-.224-.036-.17-.076-.36-.228-.36-.173 0-.274.163-.375.327-.081.131-.157.257-.258.273a2.74 2.74 0 00-.902.355h-.506a.437.437 0 01-.096-.109c-.142-.213-.69-.235-.998-.038a1.56 1.56 0 01-.355.147h-1.18c.056-2.382.927-4.649 2.457-6.38l4.8 5.178c-.243.317-.4.694-.456 1.104zm.451 1.787l-4.8 5.18c-1.515-1.722-2.386-3.961-2.451-6.327.01 0 .02.006.03.006.203.032.39.103.603.185.167.066.354.137.572.197.476.136 1.17.158 1.575-.104.36-.235.506-.038.577.055.101.136.375.207.582.147.097-.027.107-.016.152.077.02.038.046.087.086.142.228.322.492.404.735.23.06-.044.116-.088.162-.126.187-.148.243-.186.37-.093.217.158.394.076.718-.17.061-.043.233-.103.72-.142.08.279.202.525.37.743zm-6.593-6.025l-.638-.885 1.068.082a9.822 9.822 0 00-.43.803zm.668-1.191l-1.61-.12-.906-1.257a12.863 12.863 0 012.977-3.382l1.322.87.278 1.61c-.79.64-1.488 1.41-2.06 2.279zm-2.096-.153l-1.043-.077c.131-.267.268-.535.415-.792l.628.869zm.304.42l.947 1.317c-.35.814-.598 1.683-.735 2.6l-1.519.754-1.326-.579a13.719 13.719 0 011.108-4.2l1.525.108zM91.17 73c-.03.295-.051.59-.056.89l-.927-.404.983-.486zm-1.915.508l-.936.465c.005-.29.015-.574.035-.858l.901.393zm.471.208l1.388.6c.005.16.01.318.02.476l-2.795.213c-.01-.197-.02-.399-.025-.595l1.412-.694zm1.439 1.47c.055.584.162 1.152.308 1.698-.87.47-2.086 1.115-2.542 1.35a13.704 13.704 0 01-.557-2.836l2.79-.213zm.42 2.075c.05.164.106.323.162.486l-2.466 1.481a30.852 30.852 0 01-.233-.623c.506-.257 1.858-.978 2.537-1.344zm.299.852c.066.164.136.323.207.481l-2.45 1.47a9.803 9.803 0 01-.213-.475l2.456-1.475zm.38.825c.131.257.273.503.42.749-.02.005-.046.01-.066.022l-2.446 1.355a13.22 13.22 0 01-.36-.656l2.451-1.47zm.015 1.399a544.3 544.3 0 01-1.251 2.005c-.228-.306-.45-.623-.653-.95l1.904-1.055zm-.795 1.978c.126-.203.298-.481.48-.77l.933-1.498c.004-.005.004-.016.01-.021a9.781 9.781 0 001.757 1.96l-1.646 2.448a12.798 12.798 0 01-1.757-1.786c.05-.06.111-.159.223-.334zm3.474-.088c.141.11.278.213.425.317l-1.565 2.502a11.27 11.27 0 01-.506-.377l1.645-2.442zm.734.52c.223.141.456.278.694.398a.16.16 0 00-.041.044l-1.686 2.398c-.183-.104-.36-.219-.532-.328l1.565-2.513zm-1.438-1.656l4.8-5.18c.32.28.704.454 1.114.498v7.326c-2.208-.06-4.304-1-5.914-2.644zm5.048-7.332l-.466.017c.046-.251.147-.486.284-.688l.32.344a1.845 1.845 0 00-.138.328zm.137 1.044l-.319.344a1.94 1.94 0 01-.182-.339c.162-.005.329-.005.501-.005zm.005.688l.32-.344c.12.088.257.148.404.18v.492a1.528 1.528 0 01-.724-.328zm.32-2.403l-.32-.345a1.53 1.53 0 01.724-.327v.491a1.176 1.176 0 00-.405.18zm-.71-.765l-4.8-5.18c1.605-1.649 3.701-2.589 5.914-2.649v7.326a2.1 2.1 0 00-1.114.503zm-4.036-7.594l.922.601a8.304 8.304 0 00-.734.486l-.188-1.087zm3.616-.448a8.81 8.81 0 00-1.818.596l-1.185-2.737a11.39 11.39 0 012.75-.874l.75 1.404-.497 1.611zm.74-1.152l.526.988c-.289.017-.577.05-.861.093l.334-1.081zm.749-3.038v.601c-.395.011-.795.038-1.19.087l-.076-.595c.415-.055.845-.087 1.266-.093zm-.522.989l-.294 1.142-.617-1.055c0-.005.78-.169.911-.087zm-1.286-.814l.076.596c-.39.07-.78.158-1.165.267l-.152-.579c.41-.12.826-.213 1.24-.284zm-1.762.448l.151.58c-.38.125-.754.272-1.119.442l-.227-.552c.384-.18.79-.339 1.195-.47zm-.071 4.321a2.433 2.433 0 00-.167.088l-1.393-.913-.268-1.562c.207-.126.425-.24.643-.35l1.185 2.737zm-1.62-3.61l.227.55c-.36.187-.714.389-1.053.607l-.294-.508c.36-.24.734-.459 1.12-.65zm-.543 1.425l.188 1.082-.907-.59c.238-.175.476-.339.72-.492zm-1.043-.47l.294.508c-.334.235-.653.486-.962.754l-.36-.459c.334-.284.679-.557 1.028-.803zm-1.443 1.186l.36.459c-.3.284-.588.579-.856.895l-.41-.398c.283-.339.592-.661.906-.956zm-1.276 1.387l.415.399c-.258.322-.506.661-.734 1.01l-.46-.333c.242-.371.5-.732.779-1.076zm-1.089 1.563l.461.333c-.213.36-.415.732-.598 1.114l-.5-.262c.191-.399.404-.797.637-1.185zm-.876 1.715l.501.262a13.71 13.71 0 00-.445 1.191l-.532-.186c.137-.426.299-.852.476-1.267zm-.648 1.83l.532.186c-.112.41-.208.825-.289 1.245l-.552-.103c.086-.448.187-.896.309-1.328zm-.4 1.907l.552.103c-.06.427-.101.853-.127 1.279l-.557-.022c.02-.448.066-.907.132-1.36zm-.152 2.147v-.197l.557.022v.175c0 .366.015.743.04 1.109l-.556.06a17.587 17.587 0 01-.041-1.17zm.101 1.759l.557-.06c.05.426.122.846.208 1.267l-.542.148a13.221 13.221 0 01-.223-1.355zm.35 1.923l.541-.148c.107.415.228.825.37 1.224l-.516.224a14.15 14.15 0 01-.395-1.3zm.597 1.846l.517-.224c.157.393.334.781.521 1.158l-.48.3c-.203-.404-.39-.819-.558-1.234zm.836 1.743l.48-.3c.208.365.431.72.67 1.065l-.436.371a13.964 13.964 0 01-.714-1.136zm1.894 2.611a15.992 15.992 0 01-.851-1.016l.435-.366c.254.333.517.65.8.956l-.384.426zm1.367 1.29a13.69 13.69 0 01-.972-.88l.385-.432c.293.29.597.568.911.825l-.324.486zm1.514 1.076c-.37-.224-.73-.47-1.073-.727l.324-.486c.324.246.663.47 1.007.683l-.258.53zm1.64.835a14.522 14.522 0 01-1.159-.557l.263-.53c.355.192.72.366 1.09.525l-.193.562zm-.708-1.425l1.296-1.841-.334 2.31c-.33-.147-.648-.3-.962-.47zm2.446 2.004c-.41-.103-.816-.229-1.22-.376l.192-.569c.374.137.76.257 1.144.355l-.116.59zm1.787.312c-.42-.044-.845-.104-1.256-.191l.117-.59c.39.082.785.142 1.18.18l-.04.6zm-.197-1.022a11.148 11.148 0 01-2.725-.688l.436-3.01c0-.016.005-.033 0-.05a8.615 8.615 0 002.577.744l-.288 3.004zm.653-2.966a7.925 7.925 0 001.099.022l-.714 3.026a9.151 9.151 0 01-.674-.043l.289-3.005zm.091 4.032l.04-.601c.401.021.796.021 1.191 0l.04.6c-.425.022-.845.022-1.27 0zm.669-.978l.557-2.355.491 2.3c-.345.033-.694.055-1.048.055zm1.144.934l-.04-.601c.395-.038.79-.098 1.179-.18l.117.59c-.41.087-.836.153-1.256.19zm1.793-.311l-.117-.59c.385-.099.77-.219 1.145-.356l.192.569c-.405.147-.81.273-1.22.376zm1.732-.58l-.193-.568c.375-.158.734-.333 1.089-.524l.263.53c-.369.207-.759.393-1.159.562zm1.64-.835l-.263-.53c.349-.213.684-.437 1.008-.683l.329.486a13.62 13.62 0 01-1.074.727zm1.519-1.077l-.329-.486c.319-.262.623-.535.912-.825l.385.432a12.47 12.47 0 01-.968.88zm1.363-1.289l-.385-.431c.278-.306.547-.623.795-.956l.435.366c-.268.36-.552.704-.845 1.021zm1.185-1.48l-.436-.372c.238-.344.461-.7.669-1.065l.481.3c-.223.394-.461.77-.714 1.137zm.987-1.645l-.481-.3c.192-.377.365-.76.522-1.158l.516.224c-.167.42-.354.835-.557 1.234zm.76-1.775l-.517-.224c.142-.399.264-.809.37-1.224l.542.148c-.112.437-.243.88-.395 1.3zm.526-1.874l-.541-.147c.086-.416.156-.842.207-1.268l.557.06c-.056.465-.126.918-.223 1.355zm-.278-1.994c.03-.371.04-.743.04-1.109v-.175l.557-.022v.197c0 .382-.015.781-.045 1.175l-.552-.066zM84.759 96.588c.121.541.48.853 1.134.853.72 0 .998-.356.998-.793 0-.458-.208-.726-1.094-.95-.932-.235-1.301-.552-1.301-1.158 0-.596.43-1.115 1.347-1.115.957 0 1.357.58 1.412 1.115h-.44c-.086-.42-.355-.743-.993-.743-.562 0-.876.262-.876.704 0 .438.258.612 1.018.798 1.19.295 1.383.776 1.383 1.306 0 .655-.476 1.196-1.47 1.196-1.052 0-1.468-.606-1.549-1.213h.43zm5.651.268c0 .3.005.748.005.896h-.39a5.105 5.105 0 01-.02-.503c-.137.355-.44.574-.947.574-.47 0-.998-.213-.998-1.12V94.67h.4v1.939c0 .426.132.836.69.836.622 0 .86-.355.86-1.18v-1.59h.405v2.18h-.005zm.947-3.595h.405v.623h-.405v-.623zm0 1.421h.405v3.075h-.405v-3.075zm.967 0h.547v-.934h.405v.934h.7v.355h-.7v1.906c0 .323.071.503.355.503.08 0 .202-.005.294-.033v.328a1.25 1.25 0 01-.41.055c-.426 0-.639-.219-.639-.722v-2.043h-.547v-.35h-.005zm4.573 1.344c0-.612-.309-1.42-1.26-1.42-.902 0-1.343.742-1.343 1.638 0 .787.37 1.584 1.307 1.584.785 0 1.104-.491 1.23-.89h-.41c-.101.24-.279.53-.805.53-.552 0-.907-.47-.912-1.186h2.188c.005-.082.005-.163.005-.256zm-2.177-.06c.06-.596.324-1.006.906-1.006.557 0 .85.448.856 1.006H94.72zm3.058.928c.096.372.36.59.805.59.497 0 .694-.224.694-.54 0-.323-.142-.476-.775-.634-.82-.203-1.007-.454-1.007-.864 0-.431.314-.84 1.043-.84.729 0 1.053.442 1.099.873h-.395c-.05-.23-.228-.53-.72-.53-.48 0-.617.24-.617.465 0 .257.137.388.714.53.881.213 1.084.508 1.084.972 0 .552-.436.918-1.125.918-.734 0-1.119-.383-1.2-.934h.4v-.006zm5.211.863v-1.584a.208.208 0 00-.025-.104l-1.489-2.573h.496c.405.71 1.079 1.901 1.266 2.24.182-.339.871-1.524 1.296-2.24h.466l-1.549 2.595a.177.177 0 00-.02.099v1.573h-.441v-.006zm4.309-1.731c0-.612-.308-1.42-1.26-1.42-.902 0-1.342.742-1.342 1.638 0 .787.369 1.584 1.306 1.584.785 0 1.109-.491 1.231-.89h-.411c-.101.24-.278.53-.805.53-.552 0-.906-.47-.911-1.186h2.187c.005-.082.005-.163.005-.256zm-2.172-.06c.061-.596.324-1.006.906-1.006.557 0 .851.448.856 1.006h-1.762zm2.881-.449c0-.475-.005-.71-.005-.835h.395c.005.093.015.311.015.66.168-.442.542-.715 1.039-.731v.42c-.628.033-1.039.42-1.039 1.175v1.551h-.405v-2.24zm4.355.509c0-.612-.309-1.42-1.261-1.42-.901 0-1.341.742-1.341 1.638 0 .787.369 1.584 1.306 1.584.785 0 1.109-.491 1.231-.89h-.411c-.101.24-.278.53-.805.53-.552 0-.906-.47-.911-1.186h2.187c.005-.082.005-.163.005-.256zm-2.177-.06c.061-.596.324-1.006.906-1.006.557 0 .851.448.856 1.006h-1.762zm3.008-1.284c.451 1.338.775 2.289.876 2.677h.005c.071-.28.4-1.197.927-2.677h.415l-1.129 3.075h-.461l-1.069-3.075h.436zm4.881 2.448v-1.536c0-.688-.4-.989-1.109-.989-.85 0-1.078.508-1.119.885h.395c.061-.246.152-.54.714-.54.633 0 .724.376.724.666v.29h-.552c-.906 0-1.428.31-1.428.994 0 .464.304.928 1.013.928.608 0 .861-.295.967-.513.011.23.031.371.051.442h.385a4.73 4.73 0 01-.041-.628zm-.395-.81c0 .618-.111 1.164-.916 1.164-.4 0-.648-.251-.648-.606 0-.486.374-.661 1.018-.661h.546v.104zm1.353-.868c0-.268 0-.53-.006-.776h.395c.016.093.021.46.016.547.126-.29.374-.623.982-.623.552 0 1.013.328 1.013 1.163v1.989h-.405v-1.928c0-.508-.203-.847-.699-.847-.653 0-.891.53-.891 1.18v1.595h-.405v-2.3zM28.56 69.071V87.51h-1.566v-2.29c-.663.875-1.413 1.53-2.238 1.968a5.657 5.657 0 01-2.714.66c-1.747 0-3.236-.682-4.472-2.048-1.235-1.366-1.853-3.021-1.853-4.977 0-1.917.623-3.556 1.868-4.916 1.246-1.36 2.745-2.044 4.502-2.044 1.013 0 1.93.235 2.75.7.82.464 1.54 1.163 2.157 2.092V69.07h1.565zm-6.341 6.441c-.881 0-1.696.235-2.446.705-.75.47-1.342 1.125-1.782 1.972a5.755 5.755 0 00.005 5.376c.445.852 1.043 1.518 1.792 1.993a4.43 4.43 0 002.416.716c.866 0 1.691-.235 2.466-.71a4.742 4.742 0 001.793-1.917c.42-.809.627-1.716.627-2.727 0-1.54-.47-2.824-1.407-3.856-.937-1.033-2.092-1.552-3.464-1.552zm16.022-1.65c1.9 0 3.474.743 4.725 2.224 1.134 1.355 1.701 2.955 1.701 4.807 0 1.858-.597 3.48-1.797 4.873-1.2 1.388-2.74 2.087-4.629 2.087-1.894 0-3.438-.694-4.638-2.087-1.2-1.388-1.798-3.016-1.798-4.873 0-1.84.567-3.442 1.702-4.79 1.25-1.492 2.825-2.24 4.734-2.24zm-.005 1.677c-1.321 0-2.45.525-3.403 1.58-.947 1.048-1.423 2.321-1.423 3.812 0 .962.218 1.858.649 2.688.43.83 1.017 1.475 1.752 1.923a4.524 4.524 0 002.42.677c.881 0 1.686-.223 2.42-.677.735-.453 1.322-1.093 1.753-1.923a5.76 5.76 0 00.648-2.688c0-1.491-.476-2.764-1.428-3.813-.947-1.054-2.076-1.579-3.388-1.579zm7.854-1.332h1.631l3.778 9.658 3.934-9.658h.29l3.96 9.658 3.853-9.658h1.65L59.83 87.508h-.294l-3.945-9.522-3.94 9.522h-.293L46.09 74.207zm21.107 0h1.585v2.381c.633-.912 1.337-1.595 2.107-2.048a4.873 4.873 0 012.516-.678c.922 0 1.742.252 2.456.76a4.452 4.452 0 011.58 2.043c.34.857.512 2.19.512 3.999v6.845h-1.59V81.16c0-1.535-.061-2.557-.177-3.07-.183-.88-.537-1.54-1.059-1.989-.521-.442-1.2-.666-2.04-.666-.963 0-1.819.344-2.578 1.027a4.881 4.881 0 00-1.504 2.545c-.152.661-.228 1.869-.228 3.617v4.878h-1.58V74.207zm15.536-4.939h1.585v4.939h2.517v1.48h-2.517v11.822h-1.585V75.687h-2.162v-1.48h2.162v-4.939zm31.098 4.972h1.651l3.823 9.63 3.98-9.63h.289l4.011 9.63 3.899-9.63h1.671l-5.424 13.263h-.298l-3.991-9.5-3.99 9.5h-.299l-5.322-13.264zm21.005 0h1.605v2.376c.644-.913 1.353-1.59 2.132-2.044a4.983 4.983 0 012.548-.677c.931 0 1.762.251 2.481.754.724.502 1.256 1.185 1.6 2.038.344.852.517 2.185.517 3.988v6.828h-1.601v-6.32c0-1.53-.06-2.546-.177-3.06-.187-.88-.542-1.54-1.068-1.983-.527-.442-1.216-.666-2.066-.666-.973 0-1.844.338-2.608 1.021a4.836 4.836 0 00-1.52 2.535c-.151.661-.227 1.863-.227 3.611v4.868h-1.606v-13.27h-.01z" fill="#fff"/><g filter="url(#filter0_b_280_46)"><circle cx="80" cy="80" r="79.5" stroke="#00FEB2"/></g><defs><filter id="filter0_b_280_46" x="-5" y="-5" width="170" height="170" filterUnits="userSpaceOnUse" color-interpolation-filters="sRGB"><feFlood flood-opacity="0" result="BackgroundImageFix"/><feGaussianBlur in="BackgroundImageFix" stdDeviation="2.5"/><feComposite in2="SourceAlpha" operator="in" result="effect1_backgroundBlur_280_46"/><feBlend in="SourceGraphic" in2="effect1_backgroundBlur_280_46" result="shape"/></filter></defs></svg>