<svg width="160" height="160" fill="none" xmlns="http://www.w3.org/2000/svg"><path d="M130 79.5c0 3.281-.321 6.516-.941 9.682a48.672 48.672 0 01-2.971 9.636 49.31 49.31 0 01-10.634 15.734 49.283 49.283 0 01-15.728 10.575C93.635 127.701 87.165 129 80.5 129a49.322 49.322 0 01-19.226-3.873 49.152 49.152 0 01-15.728-10.575 49.304 49.304 0 01-10.634-15.734A49.25 49.25 0 0131 79.5a49.31 49.31 0 013.912-19.318 49.314 49.314 0 0110.634-15.734 49.288 49.288 0 0115.728-10.575C67.365 31.299 73.847 30 80.5 30c6.665 0 13.135 1.299 19.226 3.873a49.163 49.163 0 0115.728 10.575 49.23 49.23 0 016.459 7.92l-15.705 10.296c-5.518-8.29-14.982-13.775-25.72-13.775-16.989 0-30.8 13.728-30.8 30.6 0 16.87 13.822 30.611 30.8 30.611 13.583 0 25.135-8.778 29.23-20.93H95.539c-3.166 5.021-8.718 8.349-15.05 8.349-9.855 0-17.839-8.07-17.839-18.03s7.984-18.031 17.839-18.031c6.332 0 11.884 3.328 15.05 8.348h33.509c.631 3.178.952 6.413.952 9.694z" fill="#fff"/><g filter="url(#filter0_b_280_43)"><circle cx="80" cy="80" r="79.5" stroke="#00FEB2"/></g><defs><filter id="filter0_b_280_43" x="-5" y="-5" width="170" height="170" filterUnits="userSpaceOnUse" color-interpolation-filters="sRGB"><feFlood flood-opacity="0" result="BackgroundImageFix"/><feGaussianBlur in="BackgroundImageFix" stdDeviation="2.5"/><feComposite in2="SourceAlpha" operator="in" result="effect1_backgroundBlur_280_43"/><feBlend in="SourceGraphic" in2="effect1_backgroundBlur_280_43" result="shape"/></filter></defs></svg>