<svg width="160" height="160" fill="none" xmlns="http://www.w3.org/2000/svg"><path d="M40.82 103.235h15.289l-19.945-16V98.86c0 2.423 2.086 4.376 4.655 4.376zm27.368 0L36.164 77.552v3.466l27.705 22.217h4.32zm-4.476-23.708V55.405H40.82c-2.57 0-4.655 1.96-4.655 4.376v11.554l39.77 31.9h39.091c2.57 0 4.655-1.96 4.655-4.376V83.903H68.367c-2.57 0-4.655-1.96-4.655-4.376z" fill="#fff"/><path d="M126.345 45H68.367c-2.57 0-4.655 1.96-4.655 4.376v6.029h51.313c2.57 0 4.655 1.96 4.655 4.376v24.122h6.665c2.57 0 4.655-1.96 4.655-4.376v-30.15c0-2.416-2.085-4.377-4.655-4.377zm-94.768 63.977c-.715 0-1.356.273-1.825.707A2.337 2.337 0 0029 111.4c0 2.317 1.996 4.201 4.461 4.201h38.056l-8.251-6.624h-31.69zm39.441 0l7.649 6.134-.44.483h5.37l-8.26-6.617h-4.319zm53.376 0H83.091l7.648 6.134-.44.483h32.211a4.575 4.575 0 003.158-1.232c.811-.764 1.31-1.807 1.31-2.969 0-1.338-1.154-2.416-2.584-2.416z" fill="#fff"/><g filter="url(#filter0_b_280_47)"><circle cx="80" cy="80" r="79.5" stroke="#00FEB2"/></g><defs><filter id="filter0_b_280_47" x="-5" y="-5" width="170" height="170" filterUnits="userSpaceOnUse" color-interpolation-filters="sRGB"><feFlood flood-opacity="0" result="BackgroundImageFix"/><feGaussianBlur in="BackgroundImageFix" stdDeviation="2.5"/><feComposite in2="SourceAlpha" operator="in" result="effect1_backgroundBlur_280_47"/><feBlend in="SourceGraphic" in2="effect1_backgroundBlur_280_47" result="shape"/></filter></defs></svg>