<svg width="60" height="60" viewBox="0 0 60 60" fill="none" xmlns="http://www.w3.org/2000/svg">
<path d="M60 30.1508C60 45.0754 49.2 57.4372 34.95 60L34.8 59.8492C34.95 59.8492 34.95 59.8492 35.1 59.8492V38.593H41.7L43.05 30.1508H35.1V24.2714C35.1 21.8593 36 20.0503 39.6 20.0503H43.5V12.3618C41.4 12.0603 39 11.7588 36.9 11.7588C30 11.7588 25.2 15.9799 25.2 23.5176V30.1508H17.7V38.593H25.2V59.8492L25.05 60C10.8 57.4372 0 45.0754 0 30.1508C0 13.5678 13.5 0 30 0C46.5 0 60 13.5678 60 30.1508Z" fill="#00FEB2"/>
</svg>
