<svg width="63" height="35" viewBox="0 0 63 35" fill="none" xmlns="http://www.w3.org/2000/svg">
<path d="M17.1277 0.00384526C20.2683 -0.00480657 23.4176 0.00384526 26.5582 0.00384526C26.5668 2.06298 26.5668 4.13077 26.5582 6.18991C24.0059 6.18991 21.4623 6.18991 18.91 6.18991C17.5689 6.19856 16.2019 6.138 14.8782 6.43216C10.7599 7.33195 7.27326 10.7667 6.42538 14.911C5.89761 17.5584 6.23503 20.4308 7.61068 22.7841C8.72676 24.6702 10.3706 26.2535 12.3173 27.2571C13.9438 28.0963 15.7953 28.4165 17.6122 28.4165C21.2114 28.4165 24.8105 28.4165 28.4097 28.4165C28.4097 26.2016 28.4097 23.9867 28.4097 21.7719C24.7067 21.7719 20.9951 21.7719 17.2921 21.7719C17.2921 19.7127 17.2921 17.6622 17.2921 15.6118C23.0542 15.6118 28.8163 15.6118 34.5784 15.6118C34.5784 21.9362 34.5784 28.2607 34.5784 34.5852C29.8459 34.5852 25.1047 34.5852 20.3721 34.5852C18.2265 34.5593 16.0635 34.6977 13.9525 34.2824C12.2394 33.9796 10.5783 33.3913 9.05553 32.5607C6.18312 30.9774 3.75196 28.5982 2.13407 25.7344C0.196054 22.3342 -0.357663 18.2679 0.213358 14.4265C0.637298 11.58 1.8399 8.86332 3.65679 6.63115C5.52558 4.32111 7.91349 2.40905 10.6648 1.26701C12.7153 0.410481 14.9301 0.0298008 17.1277 0.00384526Z" fill="white"/>
<path d="M28.4789 0.00384521C33.4191 0.012497 38.3679 0.0298002 43.3081 0.038452C44.9001 0.0471039 46.5007 -0.00480688 48.0839 0.194185C49.8922 0.436437 51.6831 0.929591 53.3183 1.75152C54.9621 2.54748 56.4416 3.65492 57.748 4.92674C59.8331 6.93397 61.4683 9.443 62.2903 12.2289C63.0257 14.7033 63.1727 17.3421 62.8094 19.9031C62.3249 23.6839 60.3782 27.2225 57.5923 29.8267C55.239 32.1368 52.2022 33.772 48.9405 34.3084C47.3139 34.6371 45.6528 34.5679 44.0089 34.5766C41.7335 34.5766 39.4494 34.5766 37.174 34.5766C37.174 32.5347 37.174 30.4929 37.174 28.4511C39.7695 28.4511 42.3651 28.4511 44.9606 28.4511C46.3882 28.4597 47.8417 28.3646 49.2 27.9147C51.3889 27.2052 53.2837 25.7517 54.668 23.9262C56.234 21.9016 56.9607 19.2974 56.8136 16.7538C56.7271 14.2707 55.7322 11.8223 54.0451 9.99671C52.5656 8.32691 50.6016 7.02914 48.4041 6.52733C47.0284 6.1553 45.5836 6.21586 44.1733 6.21586C40.9808 6.21586 37.7969 6.21586 34.6044 6.21586C34.6044 7.53959 34.6044 8.85467 34.6044 10.1784C32.5625 10.1784 30.5207 10.1784 28.4789 10.1784C28.4789 6.79553 28.4789 3.39536 28.4789 0.00384521Z" fill="white"/>
</svg>
