<svg width="61" height="61" viewBox="0 0 61 61" fill="none" xmlns="http://www.w3.org/2000/svg">
<path d="M17.9951 0.5C8.34762 0.5 0.5 8.35488 0.5 18.0049V43.0049C0.5 52.6524 8.35488 60.5 18.0049 60.5H43.0049C52.6524 60.5 60.5 52.6451 60.5 42.9951V17.9951C60.5 8.34762 52.6451 0.5 42.9951 0.5H17.9951ZM48 10.5C49.38 10.5 50.5 11.62 50.5 13C50.5 14.38 49.38 15.5 48 15.5C46.62 15.5 45.5 14.38 45.5 13C45.5 11.62 46.62 10.5 48 10.5ZM30.5 15.5C38.7725 15.5 45.5 22.2275 45.5 30.5C45.5 38.7725 38.7725 45.5 30.5 45.5C22.2275 45.5 15.5 38.7725 15.5 30.5C15.5 22.2275 22.2275 15.5 30.5 15.5ZM30.5 20.5C27.8478 20.5 25.3043 21.5536 23.4289 23.4289C21.5536 25.3043 20.5 27.8478 20.5 30.5C20.5 33.1522 21.5536 35.6957 23.4289 37.5711C25.3043 39.4464 27.8478 40.5 30.5 40.5C33.1522 40.5 35.6957 39.4464 37.5711 37.5711C39.4464 35.6957 40.5 33.1522 40.5 30.5C40.5 27.8478 39.4464 25.3043 37.5711 23.4289C35.6957 21.5536 33.1522 20.5 30.5 20.5Z" fill="#00FEB2"/>
</svg>
