<svg version="1.1" id="Layer_1" xmlns="http://www.w3.org/2000/svg" xmlns:xlink="http://www.w3.org/1999/xlink" x="0px" y="0px" viewBox="0 0 50 50" style="enable-background:new 0 0 512 512;" xml:space="preserve" width="50" height="50"><path style="fill:#00FEB2;" cx="256" cy="256" r="256" d="M50 25A25 25 0 0 1 25 50A25 25 0 0 1 0 25A25 25 0 0 1 50 25z"/><path style="fill:#00FEB2;" d="M30.159 49.463c4.587 -0.963 8.957 -3.224 12.519 -6.786 1.92 -1.92 3.461 -4.076 4.626 -6.373l-7.046 -7.118L25 17.873 12.48 31.924l17.679 17.539z"/><path style="fill:#0D0421;" points="384.2,326.908 256,198.704 127.798,326.908 99.761,298.87 256,142.629 412.238,298.872 " d="M37.52 31.925L25 19.405L12.48 31.925L9.742 29.187L25 13.929L40.258 29.187Z"/><path style="fill:#0D0421;" points="256,142.629 412.238,298.872 384.2,326.908 256,198.704 " d="M25 13.929L40.258 29.187L37.52 31.925L25 19.405Z"/></svg>