<svg width="61" height="61" viewBox="0 0 61 61" fill="none" xmlns="http://www.w3.org/2000/svg">
<path d="M53.6971 0.839966H7.98282C4.04425 0.839966 0.839966 4.04425 0.839966 7.98282V53.6971C0.839966 57.6357 4.04425 60.84 7.98282 60.84H53.6971C57.6357 60.84 60.84 57.6357 60.84 53.6971V7.98282C60.84 4.04425 57.6357 0.839966 53.6971 0.839966ZM47.9914 27.0157C47.6671 27.0457 47.3385 27.0657 47.0057 27.0657C43.2585 27.0657 39.9657 25.1385 38.05 22.2257C38.05 29.8671 38.05 38.5614 38.05 38.7071C38.05 45.4343 32.5957 50.8885 25.8685 50.8885C19.1414 50.8885 13.6871 45.4343 13.6871 38.7071C13.6871 31.98 19.1414 26.5257 25.8685 26.5257C26.1228 26.5257 26.3714 26.5485 26.6214 26.5643V32.5671C26.3714 32.5371 26.1257 32.4914 25.8685 32.4914C22.4343 32.4914 19.6514 35.2743 19.6514 38.7085C19.6514 42.1428 22.4343 44.9257 25.8685 44.9257C29.3028 44.9257 32.3357 42.22 32.3357 38.7857C32.3357 38.65 32.3957 10.7943 32.3957 10.7943H38.1328C38.6728 15.9243 42.8143 19.9728 47.9914 20.3443V27.0157Z" fill="#00FEB2"/>
</svg>
