<svg width="45" height="45" viewBox="0 0 45 45" fill="none" xmlns="http://www.w3.org/2000/svg">
<path d="M22.1853 43.824C34.0863 43.824 43.7339 34.1816 43.7339 22.287C43.7339 10.3924 34.0863 0.75 22.1853 0.75C10.2844 0.75 0.636719 10.3924 0.636719 22.287C0.636719 34.1816 10.2844 43.824 22.1853 43.824Z" stroke="#00FEB2"/>
<g clip-path="url(#clip0_210_14)">
<path d="M22.595 23.5433C22.6486 22.61 23.106 21.7863 23.7966 21.203C24.5213 20.6011 25.4353 20.2746 26.3773 20.2813C27.369 20.2813 28.2801 20.6313 28.9568 21.203C29.6475 21.7863 30.1036 22.61 30.1561 23.5421C30.2086 24.5023 29.8236 25.3925 29.147 26.054C28.4017 26.7658 27.4079 27.1584 26.3773 27.1483C25.346 27.1586 24.3515 26.7659 23.6053 26.054C22.9286 25.3925 22.5425 24.5023 22.595 23.5433ZM16.575 25.4298C16.582 25.7961 16.6986 26.5055 16.8736 27.0608C17.2514 28.2556 17.8857 29.3533 18.7321 30.2773C19.6399 31.2753 20.7478 32.0708 21.9836 32.6118C23.3287 33.2047 24.7838 33.5069 26.2536 33.4985C27.7233 33.5014 29.1771 33.1945 30.5201 32.5978C31.7551 32.0517 32.8619 31.2528 33.7693 30.2528C34.6143 29.3258 35.248 28.2263 35.6266 27.0305C35.9907 25.8718 36.0904 24.6464 35.9183 23.4441C35.7545 22.2924 35.3507 21.1878 34.733 20.202C34.1607 19.2849 33.429 18.4777 32.5723 17.8185H32.5746L23.827 11.102L23.8036 11.0845C23.2296 10.6435 22.2648 10.6458 21.6336 11.0868C20.9955 11.5325 20.9231 12.271 21.4901 12.7376L21.489 12.7388L25.136 15.7056L14.0176 15.7173H14.0025C13.0831 15.7185 12.2 16.3216 12.025 17.0846C11.8453 17.8605 12.4683 18.5045 13.425 18.508V18.5103L19.06 18.4986L9.00332 26.2185L8.96365 26.2476C8.01515 26.9733 7.70948 28.182 8.30682 28.9461C8.91348 29.7243 10.2026 29.7255 11.1616 28.9508L16.6496 24.4603C16.6496 24.4603 16.568 25.067 16.575 25.4298ZM30.68 27.461C29.5483 28.6136 27.9663 29.267 26.2525 29.2693C24.5375 29.274 22.9543 28.6253 21.8226 27.475C21.2883 26.9385 20.876 26.293 20.614 25.5826C20.3738 24.9143 20.279 24.2023 20.3357 23.4944C20.3924 22.7865 20.5995 22.0987 20.943 21.4771C21.2847 20.8627 21.7414 20.3197 22.2881 19.8776C23.3871 18.9816 24.786 18.4975 26.2501 18.4951C27.7155 18.4928 29.1143 18.9735 30.2145 19.866C30.7745 20.3221 31.2295 20.8623 31.5585 21.4608C31.899 22.0741 32.1065 22.7523 32.1675 23.4511C32.2293 24.1673 32.1341 24.8884 31.8886 25.564C31.6266 26.2754 31.2136 26.9223 30.68 27.461Z" fill="white"/>
</g>
<defs>
<clipPath id="clip0_210_14">
<rect width="28" height="28" fill="white" transform="translate(8 8.12695)"/>
</clipPath>
</defs>
</svg>
