<svg width="44" height="45" viewBox="0 0 44 45" fill="none" xmlns="http://www.w3.org/2000/svg">
<g filter="url(#filter0_b_210_15)">
<circle cx="22" cy="22.127" r="21.5" stroke="#00FEB2"/>
</g>
<path d="M29.1783 11.127H13.8927C12.298 11.127 11 12.4505 11 14.0766V29.6691C11 31.2952 12.298 32.6187 13.8927 32.6187H29.1845C30.7792 32.6187 32.0772 31.2952 32.0772 29.6691V14.0766C32.071 12.4442 30.7792 11.127 29.1783 11.127ZM31.3849 29.6628C31.3849 30.9044 30.3959 31.9128 29.1845 31.9128H13.8927C12.675 31.9128 11.6861 30.9044 11.6861 29.6628V16.2572H31.3849V29.6628ZM31.3849 15.5514H11.6861V14.0766C11.6861 12.8413 12.675 11.8328 13.8927 11.8328H29.1845C30.3959 11.8328 31.3849 12.8413 31.3849 14.0766V15.5514Z" fill="white"/>
<path d="M16.3901 13.3643H14.4492C14.2576 13.3643 14.1031 13.5218 14.1031 13.7172C14.1031 13.9126 14.2576 14.0701 14.4492 14.0701H16.3901C16.5817 14.0701 16.7362 13.9126 16.7362 13.7172C16.7362 13.5218 16.5817 13.3643 16.3901 13.3643Z" fill="white"/>
<path d="M20.5434 13.3643H18.6025C18.4109 13.3643 18.2564 13.5218 18.2564 13.7172C18.2564 13.9126 18.4109 14.0701 18.6025 14.0701H20.5434C20.735 14.0701 20.8895 13.9126 20.8895 13.7172C20.8895 13.5218 20.735 13.3643 20.5434 13.3643Z" fill="white"/>
<path d="M14.4303 21.4128C14.6219 21.4128 14.7764 21.2553 14.7764 21.0599V19.2825H16.7358C16.9274 19.2825 17.0819 19.125 17.0819 18.9296C17.0819 18.7342 16.9274 18.5767 16.7358 18.5767H14.0842V21.0599C14.0842 21.2553 14.2387 21.4128 14.4303 21.4128Z" fill="white"/>
<path d="M28.7025 26.4927C28.5109 26.4927 28.3564 26.6502 28.3564 26.8456V28.6229H26.397C26.2054 28.6229 26.0508 28.7805 26.0508 28.9759C26.0508 29.1713 26.2054 29.3288 26.397 29.3288H29.0486V26.8456C29.0486 26.6565 28.8941 26.4927 28.7025 26.4927Z" fill="white"/>
<path d="M14.4493 27.8288C14.746 28.3582 15.2961 28.6544 15.8585 28.6544C16.1305 28.6544 16.4087 28.5851 16.6683 28.4338L26.9287 22.3896V22.3833L28.2329 20.2405L29.2033 19.6165C29.3084 19.5472 29.3702 19.4274 29.3702 19.3077C29.3702 19.2447 29.3516 19.1753 29.3146 19.1123C29.2095 18.9421 28.987 18.8917 28.8201 18.9989L28.0104 19.522C26.1252 19.4905 25.5565 19.4968 25.3278 19.5094H25.3093L15.0427 25.5535C14.2639 26.0262 13.9981 27.0409 14.4493 27.8288ZM27.4355 20.2279L26.5393 21.6964L25.7049 20.2216C26.0634 20.2216 26.7371 20.2216 27.4355 20.2279ZM25.0559 20.4863L25.9892 22.1375L23.3561 23.688L22.3857 22.0556L25.0559 20.4863ZM21.7861 22.4085L22.7565 24.0346L17.9972 26.8393L17.0206 25.2132L21.7861 22.4085ZM15.3888 26.1775L16.4272 25.5661L17.4038 27.1922L16.3283 27.8288C16.112 27.9548 15.8585 27.9863 15.6237 27.9233C15.3826 27.8603 15.1786 27.7027 15.055 27.4821C14.7892 27.022 14.9438 26.4422 15.3888 26.1775Z" fill="white"/>
<defs>
<filter id="filter0_b_210_15" x="-5" y="-4.87305" width="54" height="54" filterUnits="userSpaceOnUse" color-interpolation-filters="sRGB">
<feFlood flood-opacity="0" result="BackgroundImageFix"/>
<feGaussianBlur in="BackgroundImageFix" stdDeviation="2.5"/>
<feComposite in2="SourceAlpha" operator="in" result="effect1_backgroundBlur_210_15"/>
<feBlend mode="normal" in="SourceGraphic" in2="effect1_backgroundBlur_210_15" result="shape"/>
</filter>
</defs>
</svg>
