<svg width="44" height="45" viewBox="0 0 44 45" fill="none" xmlns="http://www.w3.org/2000/svg">
<g filter="url(#filter0_b_210_16)">
<circle cx="22" cy="22.127" r="21.5" stroke="#00FEB2"/>
</g>
<path d="M21.6104 17.9118C21.1455 19.7974 19.8426 21.3622 18.0748 22.1545L17.0469 21.0152L15.3184 22.7437C13.328 22.7175 11.4554 21.7682 10.2638 20.1706C10.4471 20.2295 10.637 20.2623 10.8269 20.2754C11.1084 20.3212 11.3703 20.1248 11.4161 19.8498C11.4227 19.804 11.4227 19.7581 11.4161 19.7058V15.0506C11.4227 14.8083 11.3179 14.5726 11.1215 14.422C10.9316 14.2714 10.6763 14.2191 10.4406 14.278C9.6418 14.4613 9.00016 16.4452 9.00016 16.4452C8.98706 14.5857 9.79239 12.8179 11.2001 11.6132C12.1233 10.821 13.2494 10.3103 14.4476 10.127C13.6815 10.5067 13.1643 11.2596 13.0857 12.1108C13.0857 13.1977 13.747 13.0536 13.9434 12.9096V19.1951C13.9762 19.2736 14.022 19.3456 14.0678 19.4177C14.2446 19.6599 14.5327 19.804 14.8339 19.7974C15.4951 19.7974 16.3594 19.0445 16.3594 19.0445V13.9834C16.3267 13.4334 16.032 12.9292 15.5737 12.628C16.0255 12.5626 16.4903 12.6673 16.8635 12.9227C16.9683 12.7917 17.0796 12.6739 17.1975 12.556C18.1665 11.5739 19.417 10.9323 20.7789 10.7293C20.7789 10.7293 18.8932 12.1894 18.8932 14.147C18.8932 15.6071 18.9325 19.1558 18.9325 19.1558C19.6462 19.8236 20.6807 18.8611 21.6104 17.9118Z" fill="white"/>
<path d="M19.07 32.6956V28.2434L27.9744 22.7437H33.2254C33.448 22.7437 33.6248 22.9204 33.6248 23.143V32.6956H28.0464L28.0399 31.0457C28.0399 30.7249 28.2036 30.4303 28.4786 30.2666L32.8129 27.6411C33.0421 27.497 32.9439 27.1435 32.6689 27.1435L28.053 27.1697L19.07 32.6956Z" fill="white"/>
<path d="M10.2705 30.1095C10.2378 30.1095 10.205 30.0898 10.1854 30.0637C10.1592 30.0178 10.1723 29.9589 10.2181 29.9327L34.8559 15.2077C34.9017 15.1815 34.9606 15.1946 34.9868 15.2404C35.013 15.2863 34.9999 15.3452 34.9541 15.3714L10.3229 30.0964C10.3033 30.1029 10.2902 30.1095 10.2705 30.1095Z" fill="white"/>
<defs>
<filter id="filter0_b_210_16" x="-5" y="-4.87305" width="54" height="54" filterUnits="userSpaceOnUse" color-interpolation-filters="sRGB">
<feFlood flood-opacity="0" result="BackgroundImageFix"/>
<feGaussianBlur in="BackgroundImageFix" stdDeviation="2.5"/>
<feComposite in2="SourceAlpha" operator="in" result="effect1_backgroundBlur_210_16"/>
<feBlend mode="normal" in="SourceGraphic" in2="effect1_backgroundBlur_210_16" result="shape"/>
</filter>
</defs>
</svg>
