<svg width="45" height="45" viewBox="0 0 45 45" fill="none" xmlns="http://www.w3.org/2000/svg">
<path d="M22.7314 44.3997C34.6499 44.3997 44.3118 34.7378 44.3118 22.8194C44.3118 10.9009 34.6499 1.23901 22.7314 1.23901C10.8129 1.23901 1.15106 10.9009 1.15106 22.8194C1.15106 34.7378 10.8129 44.3997 22.7314 44.3997Z" stroke="#00FEB2"/>
<path d="M35.3698 25.9192C34.4159 29.7942 31.7333 33.0133 28.0968 34.6825L26.0103 32.3576L22.4335 35.9344C18.3201 35.8748 14.5048 33.9075 12.001 30.6288C12.3587 30.748 12.776 30.8076 13.1933 30.8672C13.7894 30.9864 14.3259 30.5691 14.3856 29.973C14.3856 29.8538 14.3856 29.7942 14.3856 29.6749V20.077C14.3856 19.6001 14.2067 19.1232 13.7894 18.7655C13.3721 18.4675 12.8952 18.3482 12.4183 18.4675C10.7491 18.8251 9.43758 22.9385 9.43758 22.9385C9.37797 19.1232 11.0471 15.4868 13.9682 12.983C15.8759 11.3734 18.2009 10.3003 20.645 9.94263C19.0951 10.7176 18.022 12.2676 17.8432 13.9964C17.8432 16.2617 19.2143 15.9637 19.6316 15.6656V28.6019C19.6912 28.7807 19.8104 28.8999 19.8701 29.0788C20.2277 29.5557 20.8239 29.8538 21.42 29.8538C22.7911 29.8538 24.5796 28.3038 24.5796 28.3038V17.8713C24.52 16.7386 23.9238 15.7252 22.97 15.0695C23.9238 14.9502 24.8776 15.1291 25.6526 15.6656C25.8911 15.4271 26.0699 15.1291 26.368 14.8906C28.3353 12.8637 30.9583 11.5522 33.7602 11.1349C33.7602 11.1349 29.8852 14.1156 29.8852 18.1694C29.8852 21.1501 29.9449 28.4826 29.9449 28.4826C31.316 29.8538 33.4621 27.8865 35.3698 25.9192Z" fill="white"/>
</svg>
