<svg width="124" height="124" viewBox="0 0 124 124" fill="none" xmlns="http://www.w3.org/2000/svg">
<path d="M85.7951 26H37.2107C34.504 26.0021 31.9087 27.0781 29.9944 28.9917C28.0801 30.9054 27.0032 33.5004 27 36.2073V84.7945C27.0021 87.501 28.0781 90.0961 29.9918 92.0098C31.9055 93.9236 34.5004 94.9997 37.2067 95.0018H85.7911C87.5248 95.0048 89.2302 94.5621 90.7435 93.7162C91.2815 93.4177 91.7908 93.0704 92.265 92.6785C93.4319 91.7224 94.3722 90.5194 95.018 89.1561C95.6639 87.7927 95.9992 86.3031 95.9998 84.7945V36.2073C95.9961 33.5016 94.9199 30.9078 93.007 28.9944C91.0941 27.0811 88.5006 26.0042 85.7951 26ZM85.7951 93.1683H37.2107C35.7997 93.17 34.4117 92.8114 33.178 92.1266L43.8346 73.6695H59.3896C59.3896 67.693 56.2506 62.6723 50.9663 61.3127L59.0777 47.2644C59.3231 46.8379 59.6766 46.4835 60.1025 46.2372C60.5285 45.9908 61.0118 45.8611 61.5039 45.8611C61.996 45.8611 62.4794 45.9908 62.9053 46.2372C63.3313 46.4835 63.6847 46.8379 63.9301 47.2644L89.8298 92.1266C88.5954 92.8114 87.2067 93.17 85.7951 93.1683ZM94.1664 84.7965C94.1667 85.9825 93.9144 87.1549 93.4262 88.2358C92.9381 89.3166 92.2253 90.281 91.3353 91.0649L65.5196 46.3446C65.1122 45.6397 64.5264 45.0543 63.8212 44.6473C63.116 44.2404 62.3161 44.0261 61.5019 44.0261C60.6877 44.0261 59.8878 44.2404 59.1826 44.6473C58.4774 45.0543 57.8916 45.6397 57.4842 46.3446L49.0269 60.9908L48.685 61.5906C49.3454 61.6237 50.0012 61.7174 50.6444 61.8706C55.4209 63.0103 58.3619 67.2851 58.7358 72.5298H42.3711L41.7093 73.6735L31.6685 91.0689C30.778 90.2846 30.0649 89.3195 29.5768 88.2379C29.0886 87.1564 28.8365 85.9832 28.8374 84.7965V36.2093C28.8395 33.99 29.7219 31.8621 31.2909 30.2926C32.86 28.7231 34.9875 27.8402 37.2067 27.8375H85.7911C88.0103 27.8396 90.1381 28.7221 91.7075 30.2912C93.2769 31.8603 94.1598 33.988 94.1624 36.2073L94.1664 84.7965Z" fill="white"/>
<g filter="url(#filter0_b_206_3)">
<circle cx="62" cy="62" r="61.5" stroke="#00FEB2"/>
</g>
<defs>
<filter id="filter0_b_206_3" x="-5" y="-5" width="134" height="134" filterUnits="userSpaceOnUse" color-interpolation-filters="sRGB">
<feFlood flood-opacity="0" result="BackgroundImageFix"/>
<feGaussianBlur in="BackgroundImageFix" stdDeviation="2.5"/>
<feComposite in2="SourceAlpha" operator="in" result="effect1_backgroundBlur_206_3"/>
<feBlend mode="normal" in="SourceGraphic" in2="effect1_backgroundBlur_206_3" result="shape"/>
</filter>
</defs>
</svg>
