<svg width="124" height="124" viewBox="0 0 124 124" fill="none" xmlns="http://www.w3.org/2000/svg">
<path d="M86.1498 28H37.075C31.9551 28 27.7878 32.2493 27.7878 37.4698V87.5302C27.7878 92.7507 31.9551 97 37.075 97H86.1696C91.2895 97 95.4568 92.7507 95.4568 87.5302V37.4698C95.4369 32.229 91.2895 28 86.1498 28ZM93.2342 87.51C93.2342 91.4962 90.0591 94.7337 86.1696 94.7337H37.075C33.1656 94.7337 29.9906 91.4962 29.9906 87.51V44.471H93.2342V87.51ZM93.2342 42.2047H29.9906V37.4698C29.9906 33.5038 33.1656 30.2663 37.075 30.2663H86.1696C90.0591 30.2663 93.2342 33.5038 93.2342 37.4698V42.2047Z" fill="white"/>
<path d="M45.0924 35.1832H38.8613C38.2461 35.1832 37.75 35.689 37.75 36.3163C37.75 36.9436 38.2461 37.4494 38.8613 37.4494H45.0924C45.7075 37.4494 46.2036 36.9436 46.2036 36.3163C46.2036 35.689 45.7075 35.1832 45.0924 35.1832Z" fill="white"/>
<path d="M58.4271 35.1832H52.196C51.5808 35.1832 51.0847 35.689 51.0847 36.3163C51.0847 36.9436 51.5808 37.4494 52.196 37.4494H58.4271C59.0423 37.4494 59.5384 36.9436 59.5384 36.3163C59.5384 35.689 59.0423 35.1832 58.4271 35.1832Z" fill="white"/>
<path d="M38.8012 61.0231C39.4164 61.0231 39.9125 60.5172 39.9125 59.89V54.1838H46.2031C46.8183 54.1838 47.3144 53.678 47.3144 53.0507C47.3144 52.4234 46.8183 51.9175 46.2031 51.9175H37.6899V59.89C37.6899 60.5172 38.186 61.0231 38.8012 61.0231Z" fill="white"/>
<path d="M84.6221 77.3318C84.0069 77.3318 83.5108 77.8377 83.5108 78.4649V84.1711H77.2202C76.605 84.1711 76.1089 84.6769 76.1089 85.3042C76.1089 85.9315 76.605 86.4374 77.2202 86.4374H85.7334V78.4649C85.7334 77.8579 85.2372 77.3318 84.6221 77.3318Z" fill="white"/>
<path d="M38.8619 81.6215C39.8144 83.3212 41.5805 84.2722 43.3864 84.2722C44.2595 84.2722 45.1525 84.0496 45.986 83.564L78.9274 64.159V64.1388L83.1146 57.259L86.2301 55.2558C86.5675 55.0332 86.7659 54.6488 86.7659 54.2643C86.7659 54.062 86.7064 53.8394 86.5873 53.637C86.25 53.0907 85.5356 52.9288 84.9998 53.2728L82.4002 54.9523C76.3477 54.8511 74.522 54.8713 73.7878 54.9118H73.7282L40.7669 74.3168C38.2666 75.8344 37.4133 79.0922 38.8619 81.6215ZM80.5547 57.2186L77.6772 61.9332L74.9983 57.1983C76.1492 57.1983 78.3123 57.1983 80.5547 57.2186ZM72.9146 58.0482L75.9111 63.3496L67.4575 68.3274L64.3419 63.0866L72.9146 58.0482ZM62.417 64.2197L65.5326 69.4403L50.2525 78.4447L47.1171 73.2241L62.417 64.2197ZM41.8782 76.32L45.212 74.3573L48.3474 79.5778L44.8945 81.6215C44.2 82.0262 43.3864 82.1274 42.6323 81.925C41.8584 81.7227 41.2035 81.2168 40.8066 80.5086C39.9533 79.0315 40.4494 77.1699 41.8782 76.32Z" fill="white"/>
<g filter="url(#filter0_b_206_2)">
<circle cx="62" cy="62" r="61.5" stroke="#00FEB2"/>
</g>
<defs>
<filter id="filter0_b_206_2" x="-5" y="-5" width="134" height="134" filterUnits="userSpaceOnUse" color-interpolation-filters="sRGB">
<feFlood flood-opacity="0" result="BackgroundImageFix"/>
<feGaussianBlur in="BackgroundImageFix" stdDeviation="2.5"/>
<feComposite in2="SourceAlpha" operator="in" result="effect1_backgroundBlur_206_2"/>
<feBlend mode="normal" in="SourceGraphic" in2="effect1_backgroundBlur_206_2" result="shape"/>
</filter>
</defs>
</svg>
