<svg width="124" height="124" viewBox="0 0 124 124" fill="none" xmlns="http://www.w3.org/2000/svg">
<g filter="url(#filter0_b_206_6)">
<circle cx="62" cy="62" r="61.5" stroke="#00FEB2"/>
</g>
<path d="M60.8611 51.7585C59.5023 57.5133 55.6937 62.289 50.5263 64.7068L47.5216 61.23L42.4691 66.5052C36.651 66.4253 31.1774 63.5279 27.6942 58.6523C28.2301 58.8321 28.7851 58.932 29.3401 58.972C30.163 59.1119 30.9286 58.5124 31.0625 57.6732C31.0817 57.5333 31.0817 57.3934 31.0625 57.2336V43.0264C31.0817 42.2871 30.7755 41.5677 30.2013 41.1081C29.6463 40.6486 28.8999 40.4887 28.2109 40.6685C25.876 41.228 24.0005 47.2826 24.0005 47.2826C23.9622 41.6077 26.3162 36.2126 30.431 32.5359C33.1295 30.1181 36.4213 28.5595 39.9236 28C37.6844 29.159 36.1725 31.4569 35.9428 34.0545C35.9428 37.3715 37.8758 36.9319 38.45 36.4923V55.675C38.5457 55.9148 38.6796 56.1346 38.8136 56.3544C39.3303 57.0937 40.1724 57.5333 41.0528 57.5133C42.9858 57.5133 45.5121 55.2154 45.5121 55.2154V39.7694C45.4164 38.0909 44.5551 36.5523 43.2155 35.6331C44.536 35.4333 45.8948 35.753 46.9857 36.5323C47.2919 36.1326 47.6173 35.773 47.9618 35.4133C50.7943 32.416 54.4497 30.4578 58.4305 29.8383C58.4305 29.8383 52.9186 34.2943 52.9186 40.2689C52.9186 44.7249 53.0335 55.5551 53.0335 55.5551C55.1196 57.5932 58.1434 54.6559 60.8611 51.7585Z" fill="white"/>
<path d="M53.4353 96.479V82.8913L79.4636 66.1064H94.8126C95.4633 66.1064 95.9801 66.646 95.9801 67.3253V96.479H79.6741L79.655 91.4435C79.655 90.4644 80.1334 89.5652 80.9372 89.0657L93.6069 81.0529C94.2767 80.6133 93.9897 79.5343 93.1858 79.5343L79.6932 79.6142L53.4353 96.479Z" fill="white"/>
<path d="M27.7134 89.0656C27.6177 89.0656 27.522 89.0057 27.4646 88.9258C27.388 88.7859 27.4263 88.6061 27.5602 88.5261L99.5782 43.5868C99.7122 43.5068 99.8844 43.5468 99.961 43.6867C100.038 43.8265 99.9992 44.0064 99.8653 44.0863L27.8665 89.0257C27.809 89.0457 27.7708 89.0656 27.7134 89.0656Z" fill="white"/>
<defs>
<filter id="filter0_b_206_6" x="-5" y="-5" width="134" height="134" filterUnits="userSpaceOnUse" color-interpolation-filters="sRGB">
<feFlood flood-opacity="0" result="BackgroundImageFix"/>
<feGaussianBlur in="BackgroundImageFix" stdDeviation="2.5"/>
<feComposite in2="SourceAlpha" operator="in" result="effect1_backgroundBlur_206_6"/>
<feBlend mode="normal" in="SourceGraphic" in2="effect1_backgroundBlur_206_6" result="shape"/>
</filter>
</defs>
</svg>
