<svg width="126" height="126" viewBox="0 0 126 126" fill="none" xmlns="http://www.w3.org/2000/svg">
<path fill-rule="evenodd" clip-rule="evenodd" d="M47.6129 41.9178C49.3445 36.8268 55.0668 32.504 62.5321 32.504C71.7624 32.504 78.0322 38.9135 78.0322 45.4207C78.0322 51.9279 71.7624 58.3374 62.5321 58.3374C59.6786 58.3374 57.3655 60.6505 57.3655 63.504V73.8374C57.3655 76.6909 59.6786 79.004 62.5321 79.004C65.3857 79.004 67.6988 76.6909 67.6988 73.8374V68.1964C79.081 66.0879 88.3655 57.1521 88.3655 45.4207C88.3655 31.9536 76.1303 22.1707 62.5321 22.1707C51.2738 22.1707 41.1798 28.7419 37.83 38.5903C36.9112 41.2918 38.3563 44.2266 41.0577 45.1455C43.7592 46.0644 46.6941 44.6193 47.6129 41.9178ZM62.5321 104.837C66.8127 104.837 70.2821 101.367 70.2821 97.0874C70.2821 92.8073 66.8127 89.3374 62.5321 89.3374C58.2521 89.3374 54.7821 92.8073 54.7821 97.0874C54.7821 101.367 58.2521 104.837 62.5321 104.837Z" fill="white"/>
<path d="M125 63.4682C125 97.7025 97.249 125.468 63 125.468C28.7509 125.468 1 97.7025 1 63.4682C1 29.234 28.7509 1.46826 63 1.46826C97.249 1.46826 125 29.234 125 63.4682Z" stroke="#00FEB2"/>
</svg>
