<svg width="160" height="160" viewBox="0 0 160 160" fill="none" xmlns="http://www.w3.org/2000/svg">
<path d="M40.9579 85.3576C43.8565 85.3576 46.4906 85.6558 49.0231 85.298C57.6985 84.0753 64.7466 79.8008 70.0047 73.1008C73.0559 69.204 75.3239 64.7009 77.836 60.4065C79.687 57.2454 81.1414 53.8258 83.1958 50.8038C87.3555 44.6903 93.529 43.0899 100.323 46.3802C111.612 51.8376 118.06 60.8936 120.176 72.9516C121.101 78.2202 120.928 83.4788 119.606 88.6877C119.515 89.0655 119.382 89.4333 119.24 89.8011C119.199 89.9005 119.047 89.9601 118.904 90.0695C118.752 89.98 118.528 89.9303 118.447 89.8011C114.378 82.7929 105.693 82.4549 99.5398 85.0991C94.9631 87.0575 91.5356 90.3478 89.115 94.4931C86.6334 98.7378 84.6604 103.251 82.2398 107.535C80.4193 110.766 78.3649 113.897 76.1579 116.899C75.629 117.615 74.0221 118.072 73.0457 117.903C57.373 115.319 44.0497 102.376 41.141 87.0376C41.0291 86.4809 41.0189 85.9043 40.9579 85.3576Z" fill="white"/>
<path d="M108.022 122.098C111.317 118.261 114.551 115.021 117.165 111.353C126.207 98.6484 129.4 84.6718 124.63 69.721C121.081 58.5974 113.667 50.0683 103.211 44.3624C100.679 42.9806 97.5972 42.2549 94.6783 41.907C89.3083 41.2609 84.701 43.1894 81.6702 47.6229C79.1581 51.291 76.9003 55.1579 74.9679 59.1541C71.1133 67.1563 66.3433 74.3335 58.329 78.936C54.3829 81.2025 50.1011 82.4352 45.5346 82.3159C35.9642 82.0674 30.4619 74.5124 31.0417 65.6454C31.5095 58.4384 35.1404 52.5734 39.8391 47.3744C52.1962 33.7159 67.8791 28.4772 86.2469 30.3758C86.5521 30.4057 86.8572 30.525 87.1623 31.012C86.4198 31.0419 85.6876 31.0816 84.9451 31.1115C72.6185 31.688 61.0344 34.4913 51.169 42.1953C45.5753 46.5593 41.4155 52.0266 39.1374 58.7068C38.5983 60.2873 38.3542 62.027 38.3441 63.697C38.3034 68.5182 41.6393 71.898 46.572 72.3752C52.7963 72.9816 57.5967 70.3473 61.0954 65.7149C63.6888 62.2854 65.5704 58.329 67.6553 54.5516C68.9877 52.1459 70.0861 49.611 71.3167 47.1557C77.0325 35.6941 86.5826 32.4236 98.6753 35.5251C108.358 38.0003 115.385 44.263 121.142 51.9869C127.732 60.8241 130.255 70.7449 129.98 81.6498C129.716 92.187 126.858 101.71 120.471 110.19C117.094 114.673 113.056 118.53 108.022 122.098Z" fill="white"/>
<path d="M70.9607 41.3896C67.0857 48.6364 63.6583 55.5551 59.7528 62.1955C57.2204 66.4998 53.2743 69.2832 47.8331 69.2633C47.233 69.2633 46.6228 69.2037 46.0532 69.0645C42.8394 68.2991 42.2088 67.1261 43.531 64.1737C48.4738 53.1495 56.8339 45.7834 68.4791 41.9463C69.13 41.7376 69.8216 41.6382 70.9607 41.3896Z" fill="white"/>
<path d="M43.6123 117.794C43.6123 117.794 55.8677 126.731 67.5027 124.087C79.1377 121.443 81.8329 115.359 85.5756 107.237C89.3184 99.116 96.3767 84.4932 107.391 86.7299C118.406 88.9665 118.192 97.2869 111.958 107.844C105.723 118.401 88.8912 128.56 75.812 128.968C62.7226 129.375 52.7454 125.916 43.6123 117.794Z" fill="white"/>
<g filter="url(#filter0_b_280_44)">
<circle cx="80" cy="80" r="79.5" stroke="#00FEB2"/>
</g>
<defs>
<filter id="filter0_b_280_44" x="-5" y="-5" width="170" height="170" filterUnits="userSpaceOnUse" color-interpolation-filters="sRGB">
<feFlood flood-opacity="0" result="BackgroundImageFix"/>
<feGaussianBlur in="BackgroundImageFix" stdDeviation="2.5"/>
<feComposite in2="SourceAlpha" operator="in" result="effect1_backgroundBlur_280_44"/>
<feBlend mode="normal" in="SourceGraphic" in2="effect1_backgroundBlur_280_44" result="shape"/>
</filter>
</defs>
</svg>
