<svg width="160" height="160" viewBox="0 0 160 160" fill="none" xmlns="http://www.w3.org/2000/svg">
<path d="M100.396 59.6914C93.0231 59.6914 87.0273 66.1596 87.0273 74.1136C87.0273 82.0677 93.0231 88.5358 100.396 88.5358C107.769 88.5358 113.765 82.0677 113.765 74.1136C113.765 66.1596 107.769 59.6914 100.396 59.6914ZM113.385 73.3324L112.828 73.3543C112.808 72.9282 112.762 72.4966 112.707 72.0759L113.259 71.9721C113.314 72.4201 113.36 72.879 113.385 73.3324ZM113.157 71.3876L112.605 71.4914C112.529 71.0708 112.433 70.6501 112.317 70.2459L112.848 70.0601C112.97 70.4917 113.076 70.9396 113.157 71.3876ZM104.457 65.5477C104.133 65.9137 103.804 66.8206 103.541 67.5526C103.404 67.935 103.247 68.3721 103.186 68.4103L103.146 68.4321C102.974 68.525 102.837 68.596 102.67 68.8419C102.558 69.0003 102.295 69.0058 102.057 69.0167C101.956 69.0221 101.86 69.0221 101.779 69.0385C101.601 69.0713 101.581 69.2953 101.561 69.5302C101.546 69.6996 101.53 69.8689 101.46 69.9836C101.298 70.2513 101.095 70.5846 101.024 70.9287C100.999 71.038 101.004 71.1746 101.004 71.3002C101.004 71.546 101.009 71.7809 100.837 71.8683C100.761 71.852 100.69 71.8356 100.619 71.8301V64.4934C101.971 64.5316 103.262 64.8867 104.457 65.5477ZM101.044 64.1273V61.1009C101.343 61.1172 101.637 61.1446 101.931 61.1883L101.627 64.1929C101.429 64.1601 101.237 64.1383 101.044 64.1273ZM109.699 72.6823L109.349 71.4859C109.294 71.2674 109.233 71.0544 109.162 70.8413L108.807 69.6176L111.258 68.4103C111.856 69.7269 112.251 71.1691 112.408 72.6878H109.699V72.6823ZM112.443 73.0757C112.458 73.2887 112.469 73.5072 112.474 73.7203H109.668C109.658 73.5018 109.648 73.2887 109.623 73.0757H112.443ZM102.523 73.8678C102.483 73.4362 102.326 73.0265 102.072 72.6823C102.528 72.2289 103.303 71.4641 103.586 71.1363C103.662 71.0489 103.713 70.9506 103.743 70.8413L106.858 67.4816C107.714 68.4485 108.362 69.5848 108.777 70.814L109.03 71.6826C109.202 72.3873 109.299 73.1194 109.314 73.8623H102.523V73.8678ZM109.314 74.3595C109.258 76.7413 108.387 79.0084 106.858 80.7402L102.057 75.5613C102.315 75.2171 102.477 74.802 102.518 74.3595H109.314ZM108.539 69.3171C108.443 69.1314 108.347 68.9457 108.24 68.7654L110.605 67.1374C110.782 67.4379 110.944 67.7438 111.101 68.0552L108.539 69.3171ZM108.038 68.4431C107.45 67.5253 106.726 66.7059 105.87 66.0339C105.875 66.0011 105.88 65.9684 105.885 65.941C105.946 65.3784 105.977 65.067 105.789 65.0342C105.779 65.0342 105.597 65.0014 105.318 65.067L106.645 62.9583C108.139 63.9361 109.42 65.2527 110.397 66.8042L108.038 68.4431ZM105.759 66.4272C106.032 66.6512 106.296 66.8916 106.539 67.1429L103.733 70.1694C103.703 69.9782 103.698 69.858 103.779 69.7979C104.002 69.634 103.956 69.492 103.9 69.2953C103.88 69.2188 103.855 69.1369 103.835 69.0331C103.799 68.8364 103.86 68.8036 104.057 68.6998C104.189 68.6288 104.366 68.5359 104.584 68.3502C105.004 67.9896 105.521 67.0828 105.759 66.4272ZM101.52 73.8678C101.5 73.7585 101.465 73.6547 101.419 73.5509C101.53 73.3597 101.632 73.1795 101.682 73.0975C101.839 73.327 101.941 73.5892 101.976 73.8678H101.52ZM101.971 74.3595C101.931 74.6435 101.829 74.9112 101.667 75.1407L101.348 74.7965C101.429 74.6654 101.485 74.5179 101.515 74.3595H101.971ZM101.029 75.1461L101.348 75.4903C101.135 75.6651 100.887 75.7744 100.624 75.8181V75.3264C100.771 75.2936 100.908 75.2335 101.029 75.1461ZM101.738 75.9109L106.539 81.0898C104.933 82.7396 102.832 83.6793 100.624 83.7394V76.4081C101.034 76.3644 101.419 76.1896 101.738 75.9109ZM104.959 82.838L105.546 85.9082C104.397 86.4927 103.151 86.8915 101.844 87.0609L101.211 84.0945C102.564 83.9633 103.835 83.5263 104.959 82.838ZM105.384 83.133L106.934 85.0778C106.594 85.3127 106.245 85.5312 105.885 85.7279L105.384 83.133ZM105.399 82.5484C106.483 81.7946 107.415 80.8058 108.129 79.6531C109.177 80.9205 109.927 81.8437 109.992 81.9639C109.972 81.9257 109.957 81.8383 110.008 81.7672L110.119 81.8546C109.319 83.0183 108.347 84.0398 107.238 84.8647L105.399 82.5484ZM108.767 79.8279L110.813 80.7238C110.635 81.0461 110.443 81.363 110.24 81.6689C110.073 81.4176 109.668 80.915 108.767 79.8279ZM108.377 79.2324C108.554 78.9101 108.721 78.5769 108.863 78.2272L111.344 79.6367C111.233 79.888 111.117 80.1338 110.995 80.3796L108.377 79.2324ZM109.005 77.8667C109.314 77.0527 109.521 76.1841 109.618 75.2827L112.423 75.4084C112.296 76.7686 111.977 78.0743 111.491 79.2816L109.005 77.8667ZM109.653 74.8894C109.673 74.6326 109.678 74.3759 109.678 74.1136H112.479C112.479 74.4196 112.469 74.72 112.448 75.015L109.653 74.8894ZM112.681 69.5029L112.15 69.6886C112.018 69.2844 111.866 68.8856 111.704 68.4977L112.205 68.2355C112.383 68.6452 112.545 69.0713 112.681 69.5029ZM111.962 67.7001L111.461 67.9623C111.279 67.5799 111.081 67.2084 110.863 66.8479L111.324 66.5146C111.557 66.9025 111.775 67.3013 111.962 67.7001ZM111.02 66.0284L110.56 66.3617C110.332 66.0121 110.083 65.6734 109.825 65.351L110.235 64.9522C110.514 65.2964 110.777 65.657 111.02 66.0284ZM108.959 63.5646C109.273 63.8596 109.582 64.182 109.871 64.5152L109.461 64.914C109.187 64.6026 108.904 64.3021 108.605 64.0181L108.959 63.5646ZM107.516 62.3792C107.865 62.6305 108.215 62.8982 108.544 63.1877L108.185 63.6466C107.876 63.3789 107.552 63.1276 107.222 62.8927L107.516 62.3792ZM105.936 61.4232C106.321 61.6198 106.696 61.8329 107.055 62.0678L106.762 62.5759C106.422 62.3573 106.073 62.1552 105.708 61.9695L105.936 61.4232ZM104.245 60.713C104.65 60.8496 105.05 61.008 105.44 61.1828L105.212 61.7346C104.847 61.5707 104.473 61.4232 104.093 61.2921L104.245 60.713ZM102.477 60.265C102.893 60.336 103.308 60.4344 103.718 60.5491L103.566 61.1282C103.181 61.0189 102.791 60.926 102.401 60.8605L102.477 60.265ZM102.29 61.2374C103.738 61.4833 105.106 62.0132 106.336 62.7616L104.756 65.2691C103.89 64.772 102.953 64.4278 101.981 64.2421L102.29 61.2374ZM100.67 60.0902C101.095 60.1011 101.52 60.1339 101.936 60.1831L101.86 60.7785C101.465 60.7294 101.065 60.6966 100.67 60.6911V60.0902ZM100.68 61.0845V64.1055C100.584 64.1 100.492 64.1 100.396 64.1C100.371 64.1 100.34 64.1 100.315 64.1L99.5252 62.6196L99.9961 61.0845C100.128 61.079 100.259 61.079 100.391 61.079C100.492 61.079 100.584 61.079 100.68 61.0845ZM98.2845 73.7749C97.6515 73.7585 97.4793 73.6766 97.4338 73.6274C97.3629 73.5564 97.3122 73.4799 97.2616 73.4034C97.1755 73.2778 97.0995 73.1631 96.978 73.1576C96.8767 73.1521 96.7653 73.2232 96.6286 73.3816C96.5222 73.5072 96.4767 73.5072 96.4665 73.5018C96.426 73.4909 96.4007 73.3707 96.3805 73.2778C96.345 73.1084 96.3045 72.9172 96.1526 72.9172C95.9804 72.9172 95.8791 73.0811 95.7778 73.245C95.6968 73.3761 95.6209 73.5018 95.5196 73.5182C95.2107 73.5783 94.8765 73.7094 94.6182 73.8733H94.1118C94.0764 73.8405 94.0409 73.8077 94.0156 73.764C93.8738 73.5509 93.3269 73.5291 93.018 73.7258C92.942 73.7749 92.8205 73.8241 92.6635 73.8733H91.4836C91.5393 71.4914 92.4103 69.2243 93.9396 67.4925L98.7403 72.6714C98.4972 72.9883 98.3402 73.3652 98.2845 73.7749ZM98.7352 75.5613L93.9346 80.7402C92.4204 79.0194 91.5494 76.7796 91.4836 74.4141C91.4937 74.4141 91.5039 74.4196 91.514 74.4196C91.7166 74.4523 91.9039 74.5234 92.1166 74.6053C92.2837 74.6709 92.4711 74.7419 92.6888 74.802C93.1648 74.9385 93.8586 74.9604 94.2637 74.6982C94.6233 74.4633 94.7701 74.6599 94.841 74.7528C94.9423 74.8894 95.2157 74.9604 95.4234 74.9003C95.5196 74.873 95.5297 74.8839 95.5753 74.9768C95.5955 75.015 95.6209 75.0642 95.6614 75.1188C95.8892 75.4411 96.1526 75.5231 96.3956 75.3483C96.4564 75.3046 96.5121 75.2609 96.5577 75.2226C96.7451 75.0751 96.8008 75.0369 96.9274 75.1297C97.1451 75.2882 97.3223 75.2062 97.6464 74.9604C97.7072 74.9167 97.8794 74.8566 98.3655 74.8183C98.4465 75.097 98.5681 75.3428 98.7352 75.5613ZM92.1419 69.5357L91.5039 68.6507L92.5724 68.7326C92.4204 68.9894 92.2736 69.2571 92.1419 69.5357ZM92.8104 68.3447L91.2 68.2246L90.2936 66.9681C91.0937 65.657 92.1014 64.5152 93.2712 63.5865L94.5929 64.4551L94.8714 66.0667C94.0814 66.7059 93.3826 67.4761 92.8104 68.3447ZM90.7139 68.1918L89.6707 68.1153C89.8024 67.8476 89.9391 67.5799 90.086 67.3232L90.7139 68.1918ZM91.0177 68.6124L91.9647 69.929C91.6153 70.743 91.3671 71.6116 91.2304 72.5294L89.7112 73.2833L88.3845 72.7042C88.5364 71.2128 88.9162 69.7979 89.4935 68.5032L91.0177 68.6124ZM91.1697 72.9992C91.1393 73.2942 91.119 73.5892 91.114 73.8896L90.1872 73.4854L91.1697 72.9992ZM89.2555 73.5072L88.3186 73.9716C88.3237 73.6821 88.3338 73.398 88.3541 73.1139L89.2555 73.5072ZM89.7264 73.7148L91.114 74.3158C91.119 74.4742 91.1241 74.6326 91.1342 74.791L88.3389 75.0041C88.3288 74.8074 88.3187 74.6053 88.3136 74.4086L89.7264 73.7148ZM91.1646 75.1844C91.2203 75.7689 91.3266 76.3371 91.4735 76.8834C90.6025 77.3532 89.3871 77.9978 88.9314 78.2327C88.6529 77.3258 88.4604 76.3808 88.3744 75.3974L91.1646 75.1844ZM91.5849 77.2603C91.6355 77.4242 91.6912 77.5826 91.7469 77.7465L89.2808 79.227C89.1998 79.0194 89.1238 78.8118 89.0479 78.6042C89.5543 78.3474 90.9063 77.6263 91.5849 77.2603ZM91.8837 78.1125C91.9495 78.2764 92.0204 78.4348 92.0913 78.5933L89.6403 80.0628C89.5644 79.9044 89.4935 79.7459 89.4277 79.5875L91.8837 78.1125ZM92.2635 78.9374C92.3951 79.1942 92.5369 79.44 92.6838 79.6859C92.6635 79.6913 92.6382 79.6968 92.6179 79.7077L90.1721 81.0625C90.0455 80.8495 89.929 80.6309 89.8125 80.407L92.2635 78.9374ZM92.2787 80.3359C91.7115 81.2483 91.1899 82.0841 91.0279 82.3409C90.8 82.0349 90.5772 81.7181 90.3746 81.3903L92.2787 80.3359ZM91.4836 82.3135C91.6102 82.1114 91.7824 81.8328 91.9647 81.5433C92.3293 80.9587 92.7344 80.3086 92.8965 80.0464C92.9015 80.0409 92.9015 80.03 92.9066 80.0246C93.4079 80.7621 94.0004 81.4231 94.6638 81.9858L93.018 84.4332C92.3799 83.9033 91.7925 83.3023 91.2608 82.6468C91.3114 82.5867 91.3722 82.4884 91.4836 82.3135ZM94.9575 82.2261C95.0993 82.3354 95.236 82.4392 95.3829 82.543L93.8181 85.045C93.6459 84.9248 93.4788 84.7992 93.3117 84.6681L94.9575 82.2261ZM95.6918 82.7451C95.9146 82.8871 96.1475 83.0237 96.3855 83.1439C96.3703 83.1548 96.3551 83.1712 96.345 83.1876L94.6587 85.5859C94.4764 85.4821 94.2992 85.3673 94.127 85.2581L95.6918 82.7451ZM94.2536 81.0898L99.0542 75.9109C99.3732 76.1896 99.7581 76.3644 100.168 76.4081V83.7339C97.9604 83.6738 95.8639 82.7342 94.2536 81.0898ZM99.3023 73.7585C99.1403 73.764 98.9833 73.7695 98.8365 73.7749C98.882 73.5236 98.9833 73.2887 99.12 73.0866L99.4391 73.4308C99.3834 73.5346 99.3378 73.6438 99.3023 73.7585ZM99.4391 74.802L99.12 75.1461C99.0492 75.0423 98.9884 74.9276 98.9377 74.8074C99.0998 74.802 99.2669 74.802 99.4391 74.802ZM99.4441 75.4903L99.7632 75.1461C99.8847 75.2335 100.021 75.2936 100.168 75.3264V75.8181C99.905 75.7744 99.6568 75.6651 99.4441 75.4903ZM99.7632 73.0866L99.4441 72.7424C99.6568 72.5676 99.905 72.4583 100.168 72.4146V72.9063C100.026 72.9391 99.8898 72.9992 99.7632 73.0866ZM99.0542 72.3218L94.2536 67.1429C95.8589 65.4931 97.9553 64.5534 100.168 64.4934V71.8192C99.7632 71.8684 99.3783 72.0432 99.0542 72.3218ZM95.0183 64.7283L95.9399 65.3292C95.6867 65.4767 95.4436 65.6406 95.2056 65.8154L95.0183 64.7283ZM98.6339 64.2803C98.006 64.4114 97.3983 64.6135 96.816 64.8758L95.631 62.1388C96.502 61.7346 97.4236 61.4396 98.3807 61.2647L99.1302 62.6687L98.6339 64.2803ZM99.3732 63.1276L99.8999 64.1164C99.6113 64.1328 99.3226 64.1656 99.039 64.2093L99.3732 63.1276ZM100.123 60.0902V60.6911C99.7277 60.7021 99.3277 60.7294 98.9327 60.7785L98.8567 60.1831C99.272 60.1284 99.7024 60.0957 100.123 60.0902ZM99.6011 61.079L99.3074 62.2208L98.6896 61.1664C98.6896 61.1609 99.4695 60.9971 99.6011 61.079ZM98.3149 60.265L98.3908 60.8605C98.0009 60.9315 97.611 61.0189 97.2261 61.1282L97.0742 60.5491C97.4844 60.4289 97.8996 60.336 98.3149 60.265ZM96.5526 60.713L96.7045 61.2921C96.3247 61.4177 95.95 61.5652 95.5854 61.7346L95.3575 61.1828C95.7424 61.0025 96.1475 60.8441 96.5526 60.713ZM96.4817 65.0342C96.426 65.0615 96.3703 65.0888 96.3146 65.1216L94.922 64.2093L94.6536 62.6469C94.8613 62.5212 95.079 62.4065 95.2968 62.2972L96.4817 65.0342ZM94.8613 61.4232L95.0891 61.9749C94.7296 62.1607 94.3751 62.3628 94.0358 62.5813L93.7421 62.0733C94.1017 61.8329 94.4764 61.6144 94.8613 61.4232ZM94.3194 62.849L94.5068 63.9307L93.6003 63.3407C93.8384 63.1659 94.0764 63.002 94.3194 62.849ZM93.2763 62.3792L93.57 62.8872C93.2357 63.1221 92.9167 63.3734 92.6078 63.6411L92.2483 63.1822C92.5825 62.8982 92.9268 62.625 93.2763 62.3792ZM91.833 63.5646L92.1926 64.0235C91.8938 64.3076 91.6051 64.6026 91.3368 64.9195L90.9266 64.5207C91.2102 64.182 91.5191 63.8596 91.833 63.5646ZM90.5569 64.9522L90.9722 65.351C90.7139 65.6734 90.4658 66.0121 90.2379 66.3617L89.7771 66.0284C90.0201 65.657 90.2784 65.2964 90.5569 64.9522ZM89.4682 66.5146L89.929 66.8479C89.7163 67.2084 89.5137 67.5799 89.3314 67.9623L88.8301 67.7001C89.0225 67.3013 89.2352 66.9025 89.4682 66.5146ZM88.5921 68.23L89.0934 68.4922C88.9263 68.8801 88.7795 69.2789 88.6478 69.6832L88.1161 69.4974C88.2528 69.0713 88.4149 68.6452 88.5921 68.23ZM87.9439 70.0601L88.4756 70.2459C88.3642 70.6556 88.268 71.0708 88.187 71.4914L87.635 71.3876C87.7211 70.9396 87.8224 70.4917 87.9439 70.0601ZM87.5439 71.9667L88.0958 72.0705C88.0351 72.4966 87.9946 72.9227 87.9692 73.3488L87.4122 73.327C87.4325 72.879 87.478 72.4201 87.5439 71.9667ZM87.392 74.1136C87.392 74.0481 87.392 73.9825 87.392 73.917L87.949 73.9388C87.949 73.9989 87.949 74.0535 87.949 74.1136C87.949 74.4796 87.9642 74.8566 87.9895 75.2226L87.4325 75.2827C87.4071 74.8948 87.392 74.5015 87.392 74.1136ZM87.4932 75.8727L88.0503 75.8126C88.1009 76.2387 88.1718 76.6594 88.2579 77.08L87.716 77.2275C87.6198 76.785 87.5439 76.3316 87.4932 75.8727ZM87.8426 77.7957L88.3845 77.6482C88.4908 78.0634 88.6124 78.4731 88.7541 78.8719L88.2376 79.0958C88.0857 78.6752 87.954 78.2327 87.8426 77.7957ZM88.4402 79.6421L88.9567 79.4182C89.1137 79.8115 89.2909 80.1994 89.4783 80.5763L88.9972 80.8768C88.7947 80.4725 88.6073 80.0573 88.4402 79.6421ZM89.2757 81.3848L89.7568 81.0844C89.9644 81.4504 90.1872 81.8055 90.4253 82.1496L89.9898 82.5211C89.7315 82.1496 89.4935 81.7727 89.2757 81.3848ZM91.1697 83.9961C90.8759 83.6738 90.5924 83.3351 90.3189 82.98L90.7544 82.614C91.0076 82.9472 91.2709 83.2641 91.5545 83.57L91.1697 83.9961ZM92.5369 85.2854C92.2027 85.0122 91.8786 84.7172 91.5646 84.4058L91.9495 83.9743C92.2432 84.2638 92.547 84.5424 92.861 84.7992L92.5369 85.2854ZM94.051 86.3616C93.6814 86.1376 93.3218 85.8918 92.9775 85.635L93.3016 85.1488C93.6257 85.3946 93.965 85.6186 94.3093 85.8317L94.051 86.3616ZM95.6918 87.1974C95.2968 87.0281 94.9068 86.8423 94.5321 86.6402L94.7954 86.1103C95.1499 86.3015 95.5145 86.4763 95.8842 86.6347L95.6918 87.1974ZM94.9828 85.7716L96.2792 83.9306L95.945 86.2414C95.6158 86.0939 95.2968 85.9409 94.9828 85.7716ZM97.4287 87.7765C97.0185 87.6727 96.6134 87.5471 96.2083 87.3996L96.4007 86.8314C96.7754 86.968 97.1603 87.0882 97.5452 87.1865L97.4287 87.7765ZM99.2163 88.0879C98.796 88.0442 98.3706 87.9841 97.9604 87.8967L98.0769 87.3067C98.4668 87.3886 98.8618 87.4487 99.2568 87.487L99.2163 88.0879ZM99.0188 87.0663C98.0718 86.9516 97.1603 86.7167 96.2944 86.378L96.7299 83.3679C96.7299 83.3515 96.7349 83.3351 96.7299 83.3187C97.535 83.6957 98.401 83.947 99.3074 84.0617L99.0188 87.0663ZM99.672 84.0999C99.91 84.1218 100.153 84.1327 100.396 84.1327C100.523 84.1327 100.649 84.1272 100.771 84.1218L100.057 87.1483C99.829 87.1428 99.6062 87.1264 99.3834 87.1046L99.672 84.0999ZM99.7632 88.1316L99.8037 87.5307C100.204 87.5525 100.599 87.5525 100.994 87.5307L101.034 88.1316C100.609 88.1534 100.189 88.1534 99.7632 88.1316ZM100.432 87.1537L100.989 84.7992L101.48 87.0991C101.135 87.1319 100.786 87.1537 100.432 87.1537ZM101.576 88.0879L101.536 87.487C101.931 87.4487 102.326 87.3886 102.715 87.3067L102.832 87.8967C102.422 87.9841 101.996 88.0496 101.576 88.0879ZM103.369 87.7765L103.252 87.1865C103.637 87.0882 104.022 86.968 104.397 86.8314L104.589 87.3996C104.184 87.5471 103.779 87.6727 103.369 87.7765ZM105.101 87.1974L104.908 86.6293C105.283 86.4709 105.642 86.296 105.997 86.1048L106.26 86.6347C105.891 86.8423 105.501 87.0281 105.101 87.1974ZM106.741 86.3616L106.478 85.8317C106.827 85.6186 107.162 85.3946 107.486 85.1488L107.815 85.635C107.47 85.8918 107.111 86.1376 106.741 86.3616ZM108.26 85.2854L107.931 84.7992C108.25 84.537 108.554 84.2638 108.843 83.9743L109.228 84.4058C108.919 84.7172 108.595 85.0122 108.26 85.2854ZM109.623 83.9961L109.238 83.5646C109.516 83.2586 109.785 82.9418 110.033 82.6085L110.468 82.9746C110.2 83.3351 109.916 83.6793 109.623 83.9961ZM110.808 82.5157L110.372 82.1442C110.61 81.8 110.833 81.4449 111.041 81.0789L111.522 81.3794C111.299 81.7727 111.061 82.1496 110.808 82.5157ZM111.795 80.8713L111.314 80.5708C111.506 80.1939 111.679 79.8115 111.836 79.4127L112.352 79.6367C112.185 80.0573 111.998 80.4725 111.795 80.8713ZM112.555 79.0958L112.038 78.8719C112.18 78.4731 112.302 78.0634 112.408 77.6482L112.95 77.7957C112.838 78.2327 112.707 78.6752 112.555 79.0958ZM113.081 77.2221L112.54 77.0746C112.626 76.6594 112.696 76.2333 112.747 75.8071L113.304 75.8672C113.248 76.3316 113.178 76.785 113.081 77.2221ZM112.803 75.2281C112.833 74.8566 112.843 74.4851 112.843 74.1191C112.843 74.059 112.843 74.0044 112.843 73.9443L113.4 73.9224C113.4 73.988 113.4 74.0535 113.4 74.1191C113.4 74.5015 113.385 74.9003 113.355 75.2936L112.803 75.2281Z" fill="white"/>
<path d="M84.7588 96.5883C84.8803 97.1292 85.2399 97.4406 85.8931 97.4406C86.6122 97.4406 86.8907 97.0855 86.8907 96.6484C86.8907 96.1896 86.6831 95.9219 85.7969 95.6979C84.8651 95.463 84.4955 95.1461 84.4955 94.5397C84.4955 93.9443 84.9259 93.4253 85.8425 93.4253C86.7996 93.4253 87.1996 94.0044 87.2553 94.5397H86.8148C86.7287 94.1191 86.4603 93.7968 85.8222 93.7968C85.2601 93.7968 84.9462 94.059 84.9462 94.5015C84.9462 94.9385 85.2044 95.1133 85.964 95.2991C87.154 95.5941 87.3465 96.0748 87.3465 96.6047C87.3465 97.2603 86.8705 97.8011 85.8779 97.8011C84.8246 97.8011 84.4094 97.1947 84.3284 96.5883H84.7588Z" fill="white"/>
<path d="M90.4101 96.8558C90.4101 97.1563 90.4152 97.6043 90.4152 97.7518H90.0252C90.0151 97.6698 90.005 97.4732 90.005 97.2492C89.8683 97.6043 89.5644 97.8228 89.058 97.8228C88.5871 97.8228 88.0604 97.6097 88.0604 96.7029V94.6707H88.4605V96.61C88.4605 97.0361 88.5921 97.4458 89.1492 97.4458C89.772 97.4458 90.01 97.0907 90.01 96.2658V94.6761H90.4152V96.8558H90.4101Z" fill="white"/>
<path d="M91.3571 93.2612H91.7622V93.884H91.3571V93.2612Z" fill="white"/>
<path d="M91.3571 94.6816H91.7622V97.7573H91.3571V94.6816Z" fill="white"/>
<path d="M92.3243 94.6817H92.8712V93.7476H93.2764V94.6817H93.9752V95.0368H93.2764V96.9434C93.2764 97.2657 93.3473 97.446 93.6308 97.446C93.7119 97.446 93.8334 97.4405 93.9246 97.4132V97.741C93.8081 97.7847 93.6511 97.7956 93.5144 97.7956C93.089 97.7956 92.8763 97.5771 92.8763 97.0745V95.0314H92.3294V94.6817H92.3243Z" fill="white"/>
<path d="M96.8971 96.0256C96.8971 95.4137 96.5882 94.6052 95.6361 94.6052C94.7348 94.6052 94.2942 95.3482 94.2942 96.2441C94.2942 97.0308 94.6639 97.8284 95.6007 97.8284C96.3856 97.8284 96.7046 97.3367 96.8312 96.9379H96.421C96.3198 97.1783 96.1425 97.4678 95.6159 97.4678C95.0639 97.4678 94.7094 96.998 94.7044 96.2824H96.892C96.8971 96.2004 96.8971 96.1185 96.8971 96.0256ZM94.7196 95.9655C94.7803 95.37 95.0437 94.9603 95.626 94.9603C96.183 94.9603 96.4768 95.4083 96.4818 95.9655H94.7196Z" fill="white"/>
<path d="M97.7782 96.8942C97.8744 97.2657 98.1378 97.4842 98.5834 97.4842C99.0797 97.4842 99.2772 97.2602 99.2772 96.9434C99.2772 96.6211 99.1354 96.4681 98.5024 96.3097C97.682 96.1075 97.4946 95.8562 97.4946 95.4465C97.4946 95.0149 97.8086 94.6052 98.5378 94.6052C99.267 94.6052 99.5911 95.0477 99.6367 95.4793H99.2417C99.1911 95.2499 99.0138 94.9494 98.5226 94.9494C98.0415 94.9494 97.9048 95.1898 97.9048 95.4137C97.9048 95.6705 98.0416 95.8016 98.6188 95.9437C99.5 96.1567 99.7025 96.4517 99.7025 96.9161C99.7025 97.4678 99.267 97.8338 98.5783 97.8338C97.8441 97.8338 97.4592 97.4514 97.3782 96.8997H97.7782V96.8942Z" fill="white"/>
<path d="M102.989 97.7574V96.1732C102.989 96.1349 102.979 96.0912 102.964 96.0694L101.475 93.4963H101.971C102.376 94.2065 103.05 95.3974 103.237 95.7362C103.419 95.3974 104.108 94.212 104.533 93.4963H104.999L103.45 96.0912C103.435 96.1186 103.43 96.1404 103.43 96.1896V97.7629H102.989V97.7574Z" fill="white"/>
<path d="M107.298 96.0256C107.298 95.4137 106.99 94.6052 106.038 94.6052C105.136 94.6052 104.696 95.3482 104.696 96.2441C104.696 97.0308 105.065 97.8284 106.002 97.8284C106.787 97.8284 107.111 97.3367 107.233 96.9379H106.822C106.721 97.1783 106.544 97.4678 106.017 97.4678C105.465 97.4678 105.111 96.998 105.106 96.2824H107.293C107.298 96.2004 107.298 96.1185 107.298 96.0256ZM105.126 95.9655C105.187 95.37 105.45 94.9603 106.032 94.9603C106.589 94.9603 106.883 95.4083 106.888 95.9655H105.126Z" fill="white"/>
<path d="M108.007 95.5174C108.007 95.0422 108.002 94.8073 108.002 94.6816H108.397C108.402 94.7745 108.412 94.993 108.412 95.3426C108.58 94.9001 108.954 94.627 109.451 94.6106V95.0312C108.823 95.064 108.412 95.4519 108.412 96.2058V97.7573H108.007V95.5174Z" fill="white"/>
<path d="M112.362 96.0256C112.362 95.4137 112.053 94.6052 111.101 94.6052C110.2 94.6052 109.76 95.3482 109.76 96.2441C109.76 97.0308 110.129 97.8284 111.066 97.8284C111.851 97.8284 112.175 97.3367 112.297 96.9379H111.886C111.785 97.1783 111.608 97.4678 111.081 97.4678C110.529 97.4678 110.175 96.998 110.17 96.2824H112.357C112.362 96.2004 112.362 96.1185 112.362 96.0256ZM110.185 95.9655C110.246 95.37 110.509 94.9603 111.091 94.9603C111.648 94.9603 111.942 95.4083 111.947 95.9655H110.185Z" fill="white"/>
<path d="M113.193 94.6816C113.644 96.0201 113.968 96.9706 114.069 97.3585H114.074C114.145 97.0799 114.474 96.1621 115.001 94.6816H115.416L114.287 97.7573H113.826L112.757 94.6816H113.193Z" fill="white"/>
<path d="M118.074 97.1291V95.594C118.074 94.9057 117.674 94.6052 116.965 94.6052C116.115 94.6052 115.887 95.1133 115.846 95.4902H116.241C116.302 95.2444 116.393 94.9494 116.955 94.9494C117.588 94.9494 117.679 95.3263 117.679 95.6159V95.9054H117.127C116.221 95.9054 115.699 96.2168 115.699 96.8997C115.699 97.364 116.003 97.8284 116.712 97.8284C117.32 97.8284 117.573 97.5334 117.679 97.3149C117.69 97.5443 117.71 97.6863 117.73 97.7574H118.115C118.1 97.659 118.074 97.4077 118.074 97.1291ZM117.679 96.3206C117.679 96.9379 117.568 97.4842 116.763 97.4842C116.363 97.4842 116.115 97.2329 116.115 96.8778C116.115 96.3916 116.489 96.2168 117.133 96.2168H117.679V96.3206Z" fill="white"/>
<path d="M119.032 95.4521C119.032 95.1844 119.032 94.9222 119.026 94.6763H119.421C119.437 94.7692 119.442 95.1352 119.437 95.2226C119.563 94.9331 119.811 94.5999 120.419 94.5999C120.971 94.5999 121.432 94.9276 121.432 95.7635V97.752H121.027V95.8236C121.027 95.3155 120.824 94.9768 120.328 94.9768C119.675 94.9768 119.437 95.5067 119.437 96.1568V97.752H119.032V95.4521Z" fill="white"/>
<path d="M28.5591 69.0713V87.5088H26.9943V85.2198C26.331 86.0939 25.5815 86.7494 24.7561 87.1865C23.9306 87.629 23.0242 87.8475 22.0418 87.8475C20.2947 87.8475 18.8059 87.1646 17.5703 85.7989C16.3347 84.4331 15.7169 82.7779 15.7169 80.8221C15.7169 78.9046 16.3398 77.2657 17.5855 75.9055C18.8312 74.5452 20.3302 73.8623 22.0874 73.8623C23.1002 73.8623 24.0167 74.0972 24.8371 74.5616C25.6574 75.0259 26.3765 75.7252 26.9943 76.6539V69.0713H28.5591ZM22.219 75.5121C21.3379 75.5121 20.5226 75.747 19.7731 76.2168C19.0237 76.6867 18.4312 77.3422 17.9906 78.189C17.5501 79.0357 17.3273 79.9317 17.3273 80.8768C17.3273 81.8109 17.5501 82.7068 17.9957 83.5645C18.4413 84.4168 19.0389 85.0832 19.7883 85.5585C20.5378 86.0338 21.343 86.2742 22.2038 86.2742C23.0698 86.2742 23.8952 86.0393 24.67 85.564C25.4448 85.0942 26.0474 84.455 26.4626 83.6465C26.8829 82.838 27.0905 81.9311 27.0905 80.9205C27.0905 79.3799 26.6196 78.0961 25.6828 77.0636C24.7459 76.0311 23.5914 75.5121 22.219 75.5121Z" fill="white"/>
<path d="M38.2413 73.8623C40.1403 73.8623 41.7152 74.6053 42.966 76.0857C44.1003 77.4405 44.6675 79.0412 44.6675 80.8931C44.6675 82.7505 44.0699 84.373 42.8698 85.7661C41.6696 87.1537 40.1302 87.853 38.2413 87.853C36.3474 87.853 34.8029 87.1592 33.6028 85.7661C32.4026 84.3785 31.8051 82.7505 31.8051 80.8931C31.8051 79.0521 32.3722 77.4515 33.5065 76.1021C34.7573 74.6107 36.3322 73.8623 38.2413 73.8623ZM38.2363 75.5394C36.9146 75.5394 35.7853 76.0639 34.8333 77.1182C33.8863 78.1671 33.4103 79.44 33.4103 80.9314C33.4103 81.8929 33.6281 82.7888 34.0585 83.6192C34.4889 84.4495 35.0764 85.0942 35.8106 85.5421C36.5449 85.9955 37.3551 86.2195 38.2312 86.2195C39.1123 86.2195 39.9175 85.9955 40.6518 85.5421C41.386 85.0887 41.9735 84.4495 42.4039 83.6192C42.8343 82.7888 43.0521 81.8929 43.0521 80.9314C43.0521 79.44 42.5761 78.1671 41.624 77.1182C40.6771 76.0639 39.5478 75.5394 38.2363 75.5394Z" fill="white"/>
<path d="M46.0905 74.2065H47.721L51.4987 83.8651L55.4334 74.2065H55.7221L59.6821 83.8651L63.5357 74.2065H65.1866L59.8289 87.5089H59.5352L55.5904 77.9869L51.6507 87.5089H51.357L46.0905 74.2065Z" fill="white"/>
<path d="M67.197 74.2065H68.782V76.5883C69.415 75.676 70.1189 74.9931 70.8886 74.5397C71.6584 74.0863 72.499 73.8623 73.4054 73.8623C74.3271 73.8623 75.1474 74.1136 75.8614 74.6217C76.5754 75.1297 77.1021 75.8071 77.4414 76.6648C77.7807 77.5225 77.9528 78.8555 77.9528 80.6637V87.5088H76.3628V81.1608C76.3628 79.6257 76.302 78.6042 76.1855 78.0906C76.0032 77.2111 75.6487 76.5501 75.1272 76.1021C74.6056 75.6596 73.927 75.4356 73.0864 75.4356C72.1242 75.4356 71.2684 75.7798 70.5088 76.4627C69.7493 77.1455 69.2479 77.9978 69.0048 79.0084C68.8529 79.6694 68.777 80.8767 68.777 82.6249V87.5033H67.197V74.2065Z" fill="white"/>
<path d="M82.7332 69.2681H84.3182V74.2066H86.835V75.687H84.3182V87.5089H82.7332V75.687H80.5709V74.2066H82.7332V69.2681Z" fill="white"/>
<path d="M113.831 74.2393H115.482L119.305 83.8705L123.285 74.2393H123.574L127.585 83.8705L131.484 74.2393H133.155L127.731 87.5033H127.433L123.442 78.0032L119.452 87.5033H119.153L113.831 74.2393Z" fill="white"/>
<path d="M134.836 74.2392H136.441V76.6156C137.085 75.7033 137.794 75.0259 138.573 74.5724C139.353 74.119 140.204 73.895 141.121 73.895C142.052 73.895 142.883 74.1463 143.602 74.6489C144.326 75.1515 144.858 75.8344 145.202 76.6866C145.546 77.5388 145.719 78.8718 145.719 80.6746V87.5033H144.118V81.1826C144.118 79.653 144.058 78.6369 143.941 78.1234C143.754 77.2438 143.399 76.5828 142.873 76.1403C142.346 75.6978 141.657 75.4738 140.807 75.4738C139.834 75.4738 138.963 75.8125 138.199 76.4954C137.429 77.1783 136.923 78.025 136.679 79.0302C136.528 79.6912 136.452 80.8931 136.452 82.6412V87.5087H134.846V74.2392H134.836Z" fill="white"/>
<g filter="url(#filter0_b_280_46)">
<circle cx="80" cy="80" r="79.5" stroke="#00FEB2"/>
</g>
<defs>
<filter id="filter0_b_280_46" x="-5" y="-5" width="170" height="170" filterUnits="userSpaceOnUse" color-interpolation-filters="sRGB">
<feFlood flood-opacity="0" result="BackgroundImageFix"/>
<feGaussianBlur in="BackgroundImageFix" stdDeviation="2.5"/>
<feComposite in2="SourceAlpha" operator="in" result="effect1_backgroundBlur_280_46"/>
<feBlend mode="normal" in="SourceGraphic" in2="effect1_backgroundBlur_280_46" result="shape"/>
</filter>
</defs>
</svg>
