<svg width="160" height="160" viewBox="0 0 160 160" fill="none" xmlns="http://www.w3.org/2000/svg">
<path d="M130 79.5C130 82.7814 129.679 86.0165 129.059 89.182C128.405 92.475 127.419 95.6985 126.088 98.8176C123.587 104.72 120.008 110.007 115.454 114.552C110.911 119.086 105.611 122.646 99.7264 125.127C93.635 127.701 87.165 129 80.5 129C73.835 129 67.365 127.69 61.2736 125.127C55.3772 122.646 50.0888 119.086 45.546 114.552C40.9918 110.007 37.4126 104.72 34.9118 98.8176C32.3192 92.6954 31 86.202 31 79.5C31 72.8096 32.3192 66.3046 34.9118 60.1824C37.4126 54.2804 40.9918 48.993 45.546 44.4476C50.0888 39.9139 55.3886 36.3542 61.2736 33.8728C67.365 31.2987 73.8465 30 80.5 30C87.165 30 93.635 31.2987 99.7264 33.8728C105.623 36.3542 110.911 39.9139 115.454 44.4476C117.897 46.8826 120.054 49.5264 121.913 52.3672L106.208 62.6637C100.69 54.3732 91.226 48.8886 80.4885 48.8886C63.4991 48.8886 49.6873 62.6174 49.6873 79.4884C49.6873 96.3595 63.5105 110.1 80.4885 110.1C94.0709 110.1 105.623 101.322 109.718 89.1704H95.5393C92.3731 94.1911 86.8209 97.519 80.4885 97.519C70.6344 97.519 62.6502 89.4487 62.6502 79.4884C62.6502 69.5281 70.6344 61.4578 80.4885 61.4578C86.8209 61.4578 92.3731 64.7857 95.5393 69.8064H129.048C129.679 72.9835 130 76.2185 130 79.5Z" fill="white"/>
<g filter="url(#filter0_b_280_43)">
<circle cx="80" cy="80" r="79.5" stroke="#00FEB2"/>
</g>
<defs>
<filter id="filter0_b_280_43" x="-5" y="-5" width="170" height="170" filterUnits="userSpaceOnUse" color-interpolation-filters="sRGB">
<feFlood flood-opacity="0" result="BackgroundImageFix"/>
<feGaussianBlur in="BackgroundImageFix" stdDeviation="2.5"/>
<feComposite in2="SourceAlpha" operator="in" result="effect1_backgroundBlur_280_43"/>
<feBlend mode="normal" in="SourceGraphic" in2="effect1_backgroundBlur_280_43" result="shape"/>
</filter>
</defs>
</svg>
